<svg viewBox="0 0 120 22" fill="none" xmlns="http://www.w3.org/2000/svg">
<path fill-rule="evenodd" clip-rule="evenodd" d="M0 20.8092H4.38841V0.0528564H0V20.8092Z" fill="white"/>
<path fill-rule="evenodd" clip-rule="evenodd" d="M20.3393 12.5659V20.8091H16.1584V13.2777C16.1584 11.2611 15.0612 10.1047 13.3415 10.1047C12.185 10.1047 11.0286 10.7573 10.4356 11.7653V20.8091H6.25455V6.25016H10.4356V7.96987C11.2359 6.72441 12.778 5.9534 14.409 5.9534C18.0856 5.9534 20.3393 8.47396 20.3393 12.5659Z" fill="white"/>
<path fill-rule="evenodd" clip-rule="evenodd" d="M21.9104 19.2671L23.1556 16.3613C24.5197 17.3693 26.2988 17.9031 28.0779 17.9031C29.3825 17.9031 30.2128 17.399 30.2128 16.717C30.1833 14.4932 22.3552 16.1537 22.296 10.7867C22.2661 8.05865 24.6976 5.9534 28.1372 5.9534C30.1833 5.9534 32.2294 6.45762 33.6823 7.61404L32.496 10.6385C31.3695 9.77862 29.5309 9.12616 27.9593 9.12616C26.8918 9.12616 26.1802 9.63024 26.1802 10.2826C26.2099 12.388 34.0972 11.2315 34.1861 16.4502C34.1861 19.1485 31.8141 21.1055 28.4338 21.1055C25.9432 21.1055 23.6597 20.5125 21.9104 19.2671Z" fill="white"/>
<path fill-rule="evenodd" clip-rule="evenodd" d="M45.8701 20.6312C45.3363 20.8981 44.5061 21.0463 43.735 21.0463C40.3251 21.0463 37.9231 18.8819 37.9231 15.1158V10.2233H35.2249V6.24996H37.9231V2.42486H42.1043V6.24996H45.6923V10.2233H42.1043V14.9085C42.1043 16.2723 43.1421 17.1324 44.3577 17.1324C44.7729 17.1324 45.3363 17.0433 45.6625 16.9247L45.8701 20.6312Z" fill="white"/>
<path fill-rule="evenodd" clip-rule="evenodd" d="M58.0572 15.3235V11.7652C57.4346 10.6977 56.1298 9.89724 54.6768 9.89724C52.6309 9.89724 51.0593 11.4391 51.0593 13.5149C51.0593 15.5903 52.6309 17.1321 54.6768 17.1321C56.1298 17.1321 57.4346 16.3614 58.0572 15.3235ZM62.2381 6.25005V20.809H58.0572V19.0893C57.3454 20.2755 55.596 21.1055 53.7574 21.1055C49.9621 21.1055 46.9674 17.7254 46.9674 13.5149C46.9674 9.30437 49.9621 5.95356 53.7574 5.95356C55.5665 5.95356 57.3454 6.78382 58.0572 7.96981V6.25005H62.2381Z" fill="white"/>
<path fill-rule="evenodd" clip-rule="evenodd" d="M73.4449 6.22038L73.2075 10.1345C72.644 9.92681 71.9326 9.80833 71.3392 9.80833C70.3904 9.80833 68.8781 10.5794 68.1667 12.0024V20.8092H63.9855V6.25005H68.1667V7.96981C68.8781 6.72448 70.4494 5.95356 71.6654 5.95356C72.4066 5.95356 73 6.04259 73.4449 6.22038Z" fill="white"/>
<path fill-rule="evenodd" clip-rule="evenodd" d="M84.061 11.8542C83.8833 10.4013 82.5493 9.33375 81.0072 9.33375C79.2575 9.33375 78.1012 10.2827 77.716 11.8542H84.061ZM88.1232 14.523H77.6563C78.0422 16.5097 79.4053 17.5473 81.3924 17.5473C82.6972 17.5473 84.061 16.9543 84.5655 16.0648L87.8269 18.0515C86.7594 19.9789 84.3282 21.1057 81.3035 21.1057C77.0338 21.1057 73.6537 17.7846 73.6537 13.4555C73.6537 9.2152 76.9747 5.9534 81.2147 5.9534C85.1583 5.9534 88.2419 9.00761 88.2419 12.892C88.2419 13.396 88.2127 13.9596 88.1232 14.523Z" fill="white"/>
<path fill-rule="evenodd" clip-rule="evenodd" d="M112.2 11.7653V20.8092H107.989V12.6253C107.989 10.8758 107.01 9.80833 105.469 9.80833C104.431 9.80833 103.363 10.4605 102.859 11.3502V20.8092H98.6783V12.6253C98.6783 10.8758 97.6407 9.80833 96.2471 9.80833C95.0311 9.80833 94.0233 10.4904 93.5785 11.4391V20.8092H89.3975V6.25016H93.5785V7.91053C94.26 6.9617 95.6537 5.9534 97.7296 5.9534C99.5681 5.9534 100.903 6.54665 101.792 7.99957C102.682 6.9617 104.312 5.9534 106.24 5.9534C109.709 5.9534 112.2 8.2665 112.2 11.7653Z" fill="white"/>
<path fill-rule="evenodd" clip-rule="evenodd" d="M114.573 18.4368C114.573 16.9543 115.759 15.7979 117.272 15.7979C118.814 15.7979 120 16.9543 120 18.4368C120 19.9196 118.814 21.1057 117.272 21.1057C115.759 21.1057 114.573 19.9196 114.573 18.4368Z" fill="white"/>
</svg>
