<svg viewBox="0 0 24 24" fill="none" xmlns="http://www.w3.org/2000/svg">
<path d="M3.45996 11.03C3.45996 6.88001 6.82996 3.51001 10.97 3.51001C14.54 3.51001 17.54 6.01001 18.3 9.36005L18.33 9.33002L19.51 8.15003C18.31 4.59003 14.93 2.01001 10.97 2.01001C6 2.01001 1.95996 6.06 1.95996 11.03C1.95996 16.0001 6 20.04 10.97 20.04C12.25 20.04 13.46 19.77 14.56 19.29V17.62C13.49 18.21 12.27 18.54 10.97 18.54C6.82996 18.54 3.45996 15.17 3.45996 11.03Z" fill="black"/>
<path d="M18.33 11.08V19.17L15.8 16.64V18.76L19.03 21.99L19.83 21.19V9.57001L18.48 10.92L18.33 11.08Z" fill="black"/>
<path d="M20.83 18.07V20.19L22.04 18.98V16.8601L20.83 18.07Z" fill="black"/>
<path d="M11.751 16.5926V15.3046C12.1053 15.2521 12.4385 15.173 12.7286 15.0389C13.2051 14.8192 13.5733 14.5155 13.8331 14.1268C14.0928 13.7391 14.2227 13.2889 14.2227 12.7772C14.2227 12.2655 14.1007 11.8456 13.8575 11.5174C13.6134 11.1893 13.2706 10.9247 12.8311 10.7255C12.5166 10.5825 12.147 10.4645 11.751 10.3585V8.16296C11.9825 8.25476 12.1612 8.39929 12.2852 8.5946C12.4092 8.79089 12.4708 9.0487 12.4708 9.36901V9.72936H14.0313V9.36901C14.0313 8.76159 13.8966 8.25475 13.629 7.85143C13.3604 7.44713 12.9932 7.14342 12.5255 6.93932C12.2849 6.83458 12.026 6.75859 11.7511 6.70745V5.40905H10.3106V6.68633C9.9651 6.73186 9.63954 6.80236 9.3575 6.92663C8.91316 7.12292 8.56941 7.40319 8.32527 7.76745C8.08113 8.13073 7.95906 8.56921 7.95906 9.08093C7.95906 9.59265 8.06844 10.0096 8.28914 10.329C8.50887 10.6493 8.82527 10.9071 9.23738 11.1034C9.54396 11.249 9.91212 11.3698 10.3106 11.4781V13.8766C10.1046 13.8137 9.92335 13.7227 9.77058 13.5995C9.45906 13.3475 9.30281 12.9686 9.30281 12.4647V12.1288H7.74324V12.4647C7.74324 13.0731 7.88289 13.5926 8.16316 14.0253C8.44343 14.4569 8.83113 14.7889 9.32722 15.0214C9.62477 15.1601 9.95851 15.2436 10.3106 15.2994V16.5926H11.751ZM11.751 11.8568C11.8018 11.8737 11.8605 11.8898 11.9073 11.9071C12.1553 11.9989 12.3428 12.1171 12.4708 12.2606C12.5987 12.4052 12.6632 12.5926 12.6632 12.8251C12.6632 13.161 12.5294 13.4374 12.2608 13.6532C12.1262 13.7618 11.9558 13.8426 11.751 13.8967V11.8568ZM10.1671 9.92077C9.95124 9.82507 9.78913 9.70495 9.68073 9.56139C9.57331 9.41686 9.51862 9.24108 9.51862 9.03307C9.51862 8.72057 9.63288 8.47545 9.86139 8.29479C9.97754 8.20312 10.1287 8.13616 10.3106 8.09124V9.9735C10.264 9.95562 10.2091 9.93956 10.1671 9.92077Z" fill="black"/>
</svg>
