<svg viewBox="0 0 102 24" fill="none" xmlns="http://www.w3.org/2000/svg">
<path fill-rule="evenodd" clip-rule="evenodd" d="M74.4 0.7V18.9C74.4 20.7 74.5 22.5 74.5 23.6H70.1L69.9 21.3H69.8C68.8 23.1 66.9 24 64.8 24C61.1 24 58 20.8 58 15.9C58 10.6 61.3 7.5 65.1 7.5C67 7.5 68.6 8.2 69.3 9.3H69.5V0.7H74.4ZM83.3 7.5C88.4 7.5 90.3 11.5 90.3 15.4C90.3 16.1 90.2 16.7 90.1 17.3H80C80.2 19.3 82.2 20.3 84.5 20.3C86 20.3 87.5 20.1 88.9 19.6L89.6 22.9C88 23.6 86 23.9 83.9 23.9C78.5 23.9 75.5 20.8 75.5 15.9C75.3 11.9 77.8 7.5 83.3 7.5ZM51.5 7.5C54.7 7.5 57.2 9.6 57.2 14.3V23.7H52.3V15C52.3 13 51.6 11.6 49.8 11.6C48.4 11.6 47.6 12.5 47.3 13.4C47.1 13.8 47.1 14.2 47.1 14.6V23.7H42.2V12.9C42.2 10.9 42.1 9.3 42.1 7.8H46.4L46.6 10H46.7C47.7 8.4 49.5 7.4 51.5 7.5ZM101.2 7.5V12.1C100.8 12 100.3 12 99.9 12C98.1 12 96.9 13 96.5 14.5C96.4 14.9 96.4 15.2 96.4 15.6V23.6H91.5V13C91.5 10.7 91.4 9.2 91.4 7.8H95.6L95.8 10.7H95.9C96.7 8.4 98.6 7.4 100.2 7.4C100.5 7.4 100.8 7.5 101.2 7.5ZM40.2 7.8V23.6H35.3V7.8C35.2 7.8 40.2 7.8 40.2 7.8ZM33.9 0.3H34.7C33.8 1.4 33.5 2.8 34 4.1C31.4 4.1 30.5 5.4 30.5 7.2V7.8H33.1V11.4H30.5V23.6H25.5V11.5H23.4V7.8H25.5V7.2C25.6 2.8 29.1 0.3 33.9 0.3ZM66.5 11.2C64.3 11.2 63.1 13.2 63.1 15.7C63.1 18.4 64.4 20.1 66.5 20.1C67.9 20.1 69.1 19.1 69.3 17.7C69.4 17.3 69.4 16.9 69.4 16.6V14.5C69.4 14.2 69.4 13.9 69.3 13.6C69.1 12.3 68 11.2 66.5 11.2ZM83 10.7C80.9 10.7 80.1 12.6 80 13.9H85.8C85.8 12.7 85.3 10.7 83 10.7Z" fill="black"/>
<path d="M37.7 5.8C39.3 5.8 40.6 4.5 40.6 2.9C40.6 1.3 39.3 0 37.7 0C36.1 0 34.8 1.3 34.8 2.9C34.8 4.5 36.1 5.8 37.7 5.8Z" fill="black"/>
<path fill-rule="evenodd" clip-rule="evenodd" d="M7.4 8.9L7.9 9.5C7.3 9.7 6.7 10.2 6.5 10.9L6 10.4C5.5 11.4 5.7 12.7 6.6 13.5C7.5 14.3 8.8 14.6 9.8 14.1C11.2 13.4 11.8 11.7 11.2 10.3C10.5 8.8 8.8 8.2 7.4 8.9Z" fill="black"/>
<path fill-rule="evenodd" clip-rule="evenodd" d="M10.4 2.9C4.7 2.9 0 7.5 0 13.3C0 19 4.7 23.7 10.4 23.7C16.1 23.7 20.8 19.1 20.8 13.3V2.9H10.4ZM15.8 18.4L15.5 18.7C15.2 19 14.7 19 14.4 18.7L12.3 16.6C12.1 16.3 12 15.9 12.1 15.6L11 14.5C9.5 15.7 7.3 15.6 5.9 14.2C4.4 12.7 4.4 10.3 5.9 8.8C7.4 7.3 9.8 7.3 11.3 8.8C12.7 10.2 12.8 12.4 11.6 13.9L12.7 15C13 14.8 13.4 14.9 13.7 15.2L15.8 17.3C16.1 17.6 16.1 18.1 15.8 18.4Z" fill="black"/>
</svg>
