<svg viewBox="0 0 24 24" fill="none" xmlns="http://www.w3.org/2000/svg">
<path d="M9.00573 14.7597L10.5029 16.2569H13.7966L12.2994 14.7597H9.00573Z" fill="black"/>
<path d="M13.7067 14.7597L15.2138 16.2569H16.2419V10.5478L14.7448 9.05063V13.6818L3.09698 2.03409L2.039 3.09207L13.7067 14.7597Z" fill="black"/>
<path d="M19.7352 2.0441H10.2632L8.76611 3.54123H19.7352C20.1444 3.54123 20.4838 3.88052 20.4838 4.28983V20.4588H21.9809V4.28983C21.9809 3.05216 20.9728 2.0441 19.7352 2.0441Z" fill="black"/>
<path d="M3.51623 19.7202V9.72934L2.0191 11.2265V19.7202C2.0191 20.9578 3.0271 21.9659 4.26483 21.9659H20.4838V20.4688H4.26483C3.85553 20.4688 3.51623 20.1295 3.51623 19.7202Z" fill="black"/>
</svg>
