<svg viewBox="0 0 24 24" fill="none" xmlns="http://www.w3.org/2000/svg">
<path d="M20.4728 9.6326V16.5006C20.4728 16.9092 20.134 17.2481 19.7253 17.2481H4.85125L8.19225 13.8988H6.07909L2.052 17.9359L2.85943 18.7433H19.7253C20.9612 18.7433 21.968 17.7365 21.968 16.5006V8.13742L20.4728 9.6326Z" fill="black"/>
<path d="M3.52728 7.49942C3.52728 7.09079 3.86621 6.7518 4.27484 6.7518H19.1571L15.8079 10.101H17.921L21.9581 6.06405L21.1507 5.25662H4.27484C3.03888 5.25662 2.0321 6.26339 2.0321 7.49942V15.8626L3.52728 14.3674V7.49942Z" fill="black"/>
<path d="M3.85626 19.7401L6.09906 21.9829H8.21221L5.96942 19.7401H3.85626Z" fill="black"/>
<path d="M20.1539 4.25986L17.9011 2.01706H15.7879L18.0406 4.25986H20.1539Z" fill="black"/>
</svg>
