<svg viewBox="0 0 120 22" fill="none" xmlns="http://www.w3.org/2000/svg">
<path fill-rule="evenodd" clip-rule="evenodd" d="M0 20.7564H4.38841V0H0V20.7564Z" fill="black"/>
<path fill-rule="evenodd" clip-rule="evenodd" d="M20.3393 12.5131V20.7562H16.1584V13.2249C16.1584 11.2083 15.0612 10.0518 13.3415 10.0518C12.185 10.0518 11.0286 10.7044 10.4356 11.7125V20.7562H6.25455V6.1973H10.4356V7.91701C11.2359 6.67155 12.778 5.90055 14.409 5.90055C18.0856 5.90055 20.3393 8.4211 20.3393 12.5131Z" fill="black"/>
<path fill-rule="evenodd" clip-rule="evenodd" d="M21.9104 19.2143L23.1556 16.3084C24.5197 17.3165 26.2988 17.8503 28.0779 17.8503C29.3825 17.8503 30.2128 17.3462 30.2128 16.6641C30.1833 14.4404 22.3552 16.1009 22.296 10.7338C22.2661 8.00579 24.6976 5.90055 28.1372 5.90055C30.1833 5.90055 32.2294 6.40477 33.6823 7.56118L32.496 10.5857C31.3695 9.72577 29.5309 9.0733 27.9593 9.0733C26.8918 9.0733 26.1802 9.57739 26.1802 10.2297C26.2099 12.3351 34.0972 11.1787 34.1861 16.3974C34.1861 19.0956 31.8141 21.0526 28.4338 21.0526C25.9432 21.0526 23.6597 20.4596 21.9104 19.2143Z" fill="black"/>
<path fill-rule="evenodd" clip-rule="evenodd" d="M45.8701 20.5784C45.3363 20.8452 44.5061 20.9935 43.735 20.9935C40.3251 20.9935 37.9231 18.829 37.9231 15.063V10.1704H35.2249V6.1971H37.9231V2.372H42.1043V6.1971H45.6923V10.1704H42.1043V14.8556C42.1043 16.2194 43.1421 17.0796 44.3577 17.0796C44.7729 17.0796 45.3363 16.9904 45.6625 16.8719L45.8701 20.5784Z" fill="black"/>
<path fill-rule="evenodd" clip-rule="evenodd" d="M58.0572 15.2706V11.7123C57.4346 10.6448 56.1298 9.84438 54.6768 9.84438C52.6309 9.84438 51.0593 11.3862 51.0593 13.462C51.0593 15.5374 52.6309 17.0793 54.6768 17.0793C56.1298 17.0793 57.4346 16.3085 58.0572 15.2706ZM62.2381 6.1972V20.7561H58.0572V19.0364C57.3454 20.2226 55.596 21.0526 53.7574 21.0526C49.9621 21.0526 46.9674 17.6725 46.9674 13.462C46.9674 9.25152 49.9621 5.90071 53.7574 5.90071C55.5665 5.90071 57.3454 6.73096 58.0572 7.91695V6.1972H62.2381Z" fill="black"/>
<path fill-rule="evenodd" clip-rule="evenodd" d="M73.4449 6.16752L73.2075 10.0817C72.644 9.87395 71.9326 9.75547 71.3392 9.75547C70.3904 9.75547 68.8781 10.5265 68.1667 11.9495V20.7564H63.9855V6.1972H68.1667V7.91695C68.8781 6.67162 70.4494 5.90071 71.6654 5.90071C72.4066 5.90071 73 5.98974 73.4449 6.16752Z" fill="black"/>
<path fill-rule="evenodd" clip-rule="evenodd" d="M84.061 11.8014C83.8833 10.3485 82.5493 9.28089 81.0072 9.28089C79.2575 9.28089 78.1012 10.2299 77.716 11.8014H84.061ZM88.1232 14.4702H77.6563C78.0422 16.4568 79.4053 17.4944 81.3924 17.4944C82.6972 17.4944 84.061 16.9014 84.5655 16.0119L87.8269 17.9987C86.7594 19.9261 84.3282 21.0529 81.3035 21.0529C77.0338 21.0529 73.6537 17.7317 73.6537 13.4026C73.6537 9.16234 76.9747 5.90055 81.2147 5.90055C85.1583 5.90055 88.2419 8.95475 88.2419 12.8392C88.2419 13.3431 88.2127 13.9068 88.1232 14.4702Z" fill="black"/>
<path fill-rule="evenodd" clip-rule="evenodd" d="M112.2 11.7125V20.7564H107.989V12.5724C107.989 10.823 107.01 9.75547 105.469 9.75547C104.431 9.75547 103.363 10.4077 102.859 11.2973V20.7564H98.6783V12.5724C98.6783 10.823 97.6407 9.75547 96.2471 9.75547C95.0311 9.75547 94.0233 10.4376 93.5785 11.3863V20.7564H89.3975V6.1973H93.5785V7.85768C94.26 6.90884 95.6537 5.90055 97.7296 5.90055C99.5681 5.90055 100.903 6.49379 101.792 7.94672C102.682 6.90884 104.312 5.90055 106.24 5.90055C109.709 5.90055 112.2 8.21364 112.2 11.7125Z" fill="black"/>
<path fill-rule="evenodd" clip-rule="evenodd" d="M114.573 18.384C114.573 16.9014 115.759 15.745 117.272 15.745C118.814 15.745 120 16.9014 120 18.384C120 19.8667 118.814 21.0528 117.272 21.0528C115.759 21.0528 114.573 19.8667 114.573 18.384Z" fill="black"/>
</svg>
