<svg viewBox="0 0 100 23" fill="none" xmlns="http://www.w3.org/2000/svg">
<path d="M74.6926 9.91735C73.7956 9.91735 73.2614 10.4616 73.1103 11.4896H76.1742C76.1742 10.6128 75.7206 9.91735 74.6926 9.91735Z" fill="black"/>
<path d="M56.9038 10.0282C55.8456 10.0282 55.1905 10.9051 55.1905 12.3362C55.1905 13.8077 55.8859 14.7047 56.9442 14.7047C58.0024 14.7047 58.6575 13.8077 58.6575 12.3866C58.6575 10.9051 57.9621 10.0282 56.9038 10.0282Z" fill="black"/>
<path d="M88.5709 0H11.4291C5.11993 0 0 5.11993 0 11.4291C0 17.7383 5.11993 22.8583 11.4291 22.8583H88.5608C94.8801 22.8583 99.9899 17.7384 100 11.4291C100 5.11993 94.8801 0 88.5709 0ZM23.0397 15.5815C23.0397 16.2568 22.6164 16.5995 21.7597 16.5995C20.903 16.5995 20.4797 16.2568 20.4797 15.5815V11.9331C19.744 12.2657 18.9377 12.4471 18.081 12.4471C17.2244 12.4471 16.408 12.2657 15.6823 11.9331V15.5815C15.6823 16.2568 15.259 16.5995 14.4023 16.5995C13.5457 16.5995 13.1224 16.2568 13.1224 15.5815V6.00685C13.1224 5.43237 13.5457 4.98891 14.4023 4.98891C15.259 4.98891 15.6823 5.33158 15.6823 6.00685V9.40334C15.6823 9.45374 15.7025 9.49405 15.7428 9.51421C16.408 9.96774 17.2143 10.2298 18.081 10.2298C18.9478 10.2298 19.7541 9.96774 20.4193 9.51421C20.4596 9.48397 20.4797 9.44366 20.4797 9.40334V6.00685C20.4797 5.33158 20.903 4.98891 21.7597 4.98891C22.6164 4.98891 23.0296 5.44245 23.0397 6.00685V15.5815ZM31.3949 15.5715C31.3949 16.2669 31.0623 16.5793 30.2056 16.5793C29.4799 16.5793 29.1877 16.3576 29.1877 15.8335V15.6924C28.6535 16.2971 27.9077 16.5894 26.92 16.5894C25.2369 16.5894 24.2189 15.6722 24.2189 14.2108C24.2189 12.568 25.5392 11.6307 29.0466 11.3183V11.1873C29.0264 10.5019 28.714 10.0988 27.7666 10.0988C27.3332 10.0988 26.799 10.2096 26.2447 10.4616C25.9323 10.6027 25.6904 10.7236 25.4787 10.7236C24.9042 10.7236 24.5414 10.0484 24.5414 9.5646C24.5414 9.22193 24.743 8.95988 25.1965 8.69784C25.9625 8.28461 26.9301 8.07297 27.9782 8.07297C29.2985 8.07297 30.2661 8.40556 30.8204 9.04051C31.2034 9.49405 31.3949 10.1996 31.3949 11.0865L31.3949 15.5715ZM37.1094 10.3205C36.1923 10.3608 35.7085 10.5221 35.3558 10.9756C35.2852 11.0663 35.255 11.1772 35.255 11.288L35.2348 15.6017C35.2348 16.2568 34.8317 16.5894 34.0052 16.5894C33.1788 16.5894 32.7757 16.2568 32.7757 15.6017V9.11106C32.7757 8.45595 33.1586 8.12336 33.9649 8.12336C34.8115 8.12336 35.124 8.53658 35.1038 9.11106V9.4739C35.4868 8.67768 36.2427 8.1032 37.2102 8.1032C37.9057 8.1032 38.2181 8.4358 38.2181 9.1917C38.2181 10.0585 37.8351 10.2802 37.1094 10.3205ZM51.7033 15.5916C51.7033 16.2467 51.3001 16.5793 50.4737 16.5793C49.6472 16.5793 49.2441 16.2467 49.2441 15.5916V11.7517C49.2441 11.3384 49.1937 10.9655 49.0022 10.7337C48.8006 10.4213 48.4277 10.26 47.944 10.26C47.3594 10.26 46.8857 10.5019 46.5934 10.9051V15.6017C46.5934 16.2568 46.1903 16.5894 45.3638 16.5894C44.5374 16.5894 44.1342 16.2568 44.1342 15.6017V11.7315C44.1342 11.3183 44.0637 10.9655 43.8924 10.7236C43.6706 10.4112 43.3078 10.2499 42.8341 10.2499C42.2495 10.2499 41.7557 10.4918 41.4634 10.895V15.5916C41.4634 16.2467 41.0603 16.5793 40.2338 16.5793C39.4074 16.5793 39.0042 16.2467 39.0042 15.5916V9.11106C39.0042 8.45595 39.3872 8.12336 40.1935 8.12336C41.0502 8.12336 41.3626 8.54666 41.3425 9.11106V9.31263C41.7759 8.58698 42.6628 8.12336 43.8017 8.12336C45.0312 8.12336 45.8275 8.63737 46.2709 9.59483C46.7245 8.69784 47.692 8.12336 48.9216 8.12336C49.9395 8.12336 50.7156 8.48619 51.2094 9.25216C51.542 9.76617 51.7033 10.4818 51.7033 11.3485V15.5916ZM56.8837 16.6801C54.2834 16.6801 52.6809 14.9768 52.6809 12.3866C52.6809 9.75609 54.364 8.04273 56.9542 8.04273C59.5545 8.04273 61.1772 9.75609 61.1772 12.3362C61.1772 14.9869 59.4941 16.6801 56.8837 16.6801ZM69.8146 15.5916C69.8146 16.2467 69.4114 16.5793 68.585 16.5793C67.7585 16.5793 67.3554 16.2467 67.3554 15.5916V11.7517C67.3554 11.3384 67.2848 11.0058 67.1135 10.764C66.8716 10.4213 66.5088 10.2499 66.0048 10.2499C65.4001 10.2499 64.9466 10.4918 64.6039 10.8748V15.6017C64.6039 16.2568 64.2008 16.5894 63.3743 16.5894C62.5479 16.5894 62.1447 16.2568 62.1447 15.6017V9.11106C62.1447 8.45595 62.5277 8.12336 63.334 8.12336C64.1806 8.12336 64.493 8.54666 64.4729 9.11106V9.31263C64.9667 8.54666 65.7932 8.12336 66.9421 8.12336C67.9802 8.12336 68.8067 8.46603 69.3005 9.25216C69.6432 9.76617 69.8146 10.4818 69.8146 11.3485V15.5916ZM75.0957 14.6543C75.6803 14.6543 76.154 14.483 76.5975 14.2713C76.8897 14.1302 77.0913 14.0294 77.313 14.0294C77.8774 14.0294 78.2907 14.6341 78.2907 15.128C78.2907 15.5614 77.9984 15.7831 77.6456 16.0048C77.0006 16.408 76.1238 16.6499 75.0353 16.6499C72.314 16.6499 70.772 15.0776 70.772 12.4068C70.772 9.75609 72.2939 8.06289 74.743 8.06289C77.1619 8.06289 78.5124 9.72586 78.5124 11.6609C78.5124 12.9409 77.8875 13.082 77.1215 13.082H73.1405C73.3421 14.1 73.9669 14.6543 75.0957 14.6543ZM86.9683 10.391C86.3132 12.82 84.8619 16.156 82.9268 18.8067C82.1508 19.744 81.7577 19.9456 81.0018 19.6936C80.6087 19.5626 80.2963 19.23 80.2258 18.8268C80.1451 18.3431 80.5382 17.8996 80.8204 17.6275C81.3747 17.0732 81.8182 16.4684 81.9694 16.1963L79.2078 9.65531C79.097 9.39327 78.9861 9.1413 78.9861 8.88934C78.9861 8.48619 79.2582 8.14352 80.1653 8.14352C81.0623 8.14352 81.3546 8.45595 81.6065 9.13122L83.3602 13.8883C83.7936 12.9208 84.3278 11.5098 84.8821 9.16146C85.003 8.60714 85.124 8.14352 86.1419 8.14352C87.0591 8.12336 87.2606 8.49627 87.2606 8.90949C87.2606 9.22193 87.1498 9.75609 86.9683 10.391Z" fill="black"/>
<path d="M26.6882 13.9992C26.6882 14.4124 26.9603 14.745 27.6557 14.745C28.1294 14.745 28.6031 14.5737 29.0264 14.231V12.7394C27.4541 12.951 26.6882 13.2836 26.6882 13.9992Z" fill="black"/>
</svg>
