<svg viewBox="0 0 24 24" fill="none" xmlns="http://www.w3.org/2000/svg">
<path d="M6.60498 12.8651L8.74744 15.0075L9.80799 13.947L8.72608 12.8651H6.60498Z" fill="black"/>
<path d="M17.3929 9.90241H15.2716L9.45453 15.7146L10.5171 16.7772L17.3929 9.90241Z" fill="black"/>
<path d="M16.4197 5.12641L15.3077 6.23841C17.8043 7.46619 19.5308 10.0291 19.5308 12.994C19.5308 17.1464 16.1528 20.5243 12.0005 20.5243C7.84815 20.5243 4.46924 17.1464 4.46924 12.994C4.46924 8.84168 7.84815 5.46277 12.0005 5.46277C12.0761 5.46277 12.1499 5.47009 12.2245 5.47412L9.4784 8.22021H11.5995L14.8306 4.98913L13.8121 3.97039H12.1458C12.0969 3.9696 12.0496 3.96276 12.0005 3.96276C11.9497 3.96276 11.9005 3.96953 11.8499 3.97039H11.6911L11.6987 3.97802C6.85956 4.1391 2.96924 8.1164 2.96924 12.994C2.96924 17.9735 7.021 22.0243 12.0005 22.0243C16.98 22.0243 21.0308 17.9735 21.0308 12.994C21.0308 9.62006 19.1679 6.6767 16.4197 5.12641Z" fill="black"/>
<path d="M12.8123 2.9704L11.8179 1.97571H9.69849L9.69776 1.97644L10.6914 2.9704H12.8123Z" fill="black"/>
</svg>
