<svg viewBox="0 0 106 24" fill="none" xmlns="http://www.w3.org/2000/svg">
<path d="M58.4564 0.39834H64.9295L61.7427 23.6017H55.2697L58.4564 0.39834ZM50.2905 0.39834L45.9087 13.7427L44.0166 0.39834H39.5353L33.8589 13.7427L33.0622 0.39834H26.7884L28.9793 23.6017H34.1577L40.6307 8.96266L42.9212 23.6017H48L56.4647 0.39834H50.2905ZM104.664 13.8423H89.3278C89.4274 16.8299 91.2199 18.8216 93.9087 18.8216C95.9004 18.8216 97.4938 17.7261 98.6888 15.7344L103.867 18.1245C102.075 21.61 98.2905 23.9004 93.7095 23.9004C87.4357 23.9004 83.2531 19.6183 83.2531 12.8465C83.1535 5.27801 88.1328 0 95.1037 0C101.178 0 105.062 4.08299 105.062 10.556C105.062 11.6515 104.863 12.7469 104.664 13.8423ZM98.888 9.361C98.888 6.6722 97.3942 4.97925 95.0042 4.97925C92.5145 4.97925 90.4232 6.77178 89.9253 9.361H98.888ZM6.57261 7.36929L0 15.0373H11.751L13.0456 11.3527H8.06639L11.1535 7.76763V7.66805L9.16183 4.18257H18.2241L11.2531 23.4025H15.9336L24.3983 0.19917H2.58921L6.57261 7.36929ZM75.4855 4.97925C77.7759 4.97925 79.7676 6.17427 81.5602 8.26556L82.4564 1.69295C80.7635 0.697095 78.5726 0 75.6846 0C69.9087 0 66.6224 3.38589 66.6224 7.66805C66.6224 10.6556 68.3154 12.4481 71.0042 13.6432L72.2988 14.2407C74.7884 15.2365 75.3859 15.834 75.3859 16.9295C75.3859 18.0249 74.2905 18.8216 72.5975 18.8216C69.8091 18.8216 67.6183 17.4274 65.9253 15.0373L65.029 21.7095C66.9212 23.2033 69.4108 24 72.6971 24C78.1743 24 81.5602 20.8133 81.5602 16.4315C81.5602 13.444 80.2656 11.5519 76.8797 9.95851L75.4855 9.26141C73.4938 8.36515 72.7967 7.86722 72.7967 6.87137C72.7967 5.77593 73.6929 4.97925 75.4855 4.97925Z" fill="black"/>
</svg>
