<svg viewBox="0 0 24 24" fill="none" xmlns="http://www.w3.org/2000/svg">
<path d="M10.398 8.75467H8.89801V10.2547H10.398V8.75467Z" fill="black"/>
<path d="M13.2115 8.75467H11.7115V10.2547H13.2115V8.75467Z" fill="black"/>
<path d="M16.025 8.75467H14.525V10.2547H16.025V8.75467Z" fill="black"/>
<path d="M19.7545 3.37869H7.0025V4.87747H4.25482C3.01459 4.87747 2.00482 5.88723 2.00482 7.12747V13.3794C2.00482 14.6197 3.01459 15.6294 4.25482 15.6294H4.50232V18.0513L6.00232 19.5513V15.6294H6.0058V14.1294H4.25482C3.84173 14.1294 3.50482 13.7925 3.50482 13.3794V7.12747C3.50482 6.71438 3.84173 6.37747 4.25482 6.37747H7.0058V4.87869H19.7545C20.1676 4.87869 20.5045 5.2156 20.5045 5.62869V13.3797C20.5045 13.7928 20.1676 14.1297 19.7545 14.1297H11.4338V14.1328L11.4324 14.1313L6.01234 19.5613L7.07234 20.6213L12.0548 15.6297H19.7545C20.9947 15.6297 22.0045 14.6199 22.0045 13.3797V5.62869C22.0045 4.38846 20.9947 3.37869 19.7545 3.37869Z" fill="black"/>
</svg>
