<svg viewBox="0 0 24 24" fill="none" xmlns="http://www.w3.org/2000/svg">
<path d="M11.368 7.93286L15.4138 11.9777L11.3531 16.0374H13.4744L17.5349 11.9777L13.4893 7.93286H11.368Z" fill="black"/>
<path d="M9.47754 7.93286H7.35626L11.402 11.9777L7.34137 16.0374H9.46265L13.5231 11.9777L9.47754 7.93286Z" fill="black"/>
<path d="M20.5388 4.76855V3.27148H14.1687C13.7556 3.27148 13.4187 2.93457 13.4187 2.52148V1.98535H10.5906V2.52148C10.5906 2.93457 10.2537 3.27148 9.84058 3.27148H3.48023V4.76269H1.98218V12.0781H1.98853C2.05805 17.5234 8.63581 22.0146 12.0046 22.0146C15.3735 22.0146 21.9512 17.5234 22.0207 12.0781H22.0271V4.76855H20.5388ZM20.5205 12.0778C20.4487 16.869 14.4615 20.5147 12.0046 20.5147C9.54779 20.5147 3.56055 16.869 3.48877 12.0778H3.48218V4.77148H9.84058C10.8784 4.77148 11.7462 4.06066 12.0046 3.10308C12.2631 4.06066 13.1309 4.77148 14.1687 4.77148H20.5271V12.0778H20.5205Z" fill="black"/>
</svg>
