<svg viewBox="0 0 100 48" fill="none" xmlns="http://www.w3.org/2000/svg">
<path d="M6.90833 23.025C7.575 23.025 8.20833 22.975 8.80833 22.875C9.375 22.7917 9.91667 22.6167 10.425 22.3583C10.8833 22.125 11.275 21.7667 11.55 21.3333C11.8333 20.9 11.9667 20.3417 11.9667 19.65C11.9667 18.9583 11.825 18.4333 11.55 18.0083C11.2667 17.5917 10.8833 17.25 10.4333 17.0167C9.96667 16.775 9.44167 16.625 8.85 16.5417C8.24167 16.4667 7.63333 16.425 7.025 16.425H4.05833V23.0167H6.9L6.90833 23.025ZM0 12.9917H7.45C8.75833 12.9917 9.94167 13.1083 11 13.35C12.0583 13.5917 12.9583 13.975 13.7083 14.5167C14.4583 15.0583 15.0417 15.75 15.45 16.5917C15.8583 17.4333 16.0667 18.4583 16.0667 19.6417C16.0667 20.9167 15.8333 21.9917 15.3583 22.8583C14.9 23.7083 14.2417 24.425 13.4417 24.95C12.6333 25.4833 11.6917 25.8667 10.6167 26.1C9.54167 26.3333 8.4 26.4583 7.2 26.4583H4.06667V35.975H0V12.9917ZM26.3667 28.8667C25.7417 28.8667 25.0833 28.8917 24.4 28.95C23.7167 29.0083 23.075 29.125 22.5 29.3083C21.9167 29.4917 21.4333 29.75 21.05 30.0917C20.6667 30.425 20.4667 30.8833 20.4667 31.4667C20.4667 31.8333 20.5417 32.1417 20.7083 32.3917C20.8667 32.6417 21.0833 32.8417 21.3333 32.9917C21.5917 33.1417 21.8833 33.25 22.2083 33.3167C22.525 33.3833 22.85 33.4167 23.175 33.4167C24.5083 33.4167 25.5167 33.0583 26.2083 32.3417C26.9 31.625 27.2417 30.65 27.2417 29.4167V28.8667H26.3667ZM27.3 34H27.2C26.8083 34.6917 26.1917 35.2667 25.325 35.7083C24.4667 36.15 23.4833 36.375 22.3917 36.375C21.7667 36.375 21.1167 36.2917 20.4417 36.1333C19.775 35.975 19.1417 35.7 18.5667 35.325C17.9917 34.9417 17.5 34.425 17.15 33.8333C16.775 33.2167 16.5833 32.45 16.5833 31.55C16.5833 30.3833 16.9083 29.45 17.5667 28.7583C18.225 28.0667 19.0667 27.5333 20.1 27.1667C21.1333 26.8 22.275 26.5583 23.5333 26.4333C24.7583 26.3167 25.9917 26.2583 27.225 26.25V25.8583C27.225 24.8833 26.875 24.1667 26.175 23.7C25.475 23.2333 24.6417 23 23.675 23C22.8583 23 22.075 23.175 21.3167 23.5167C20.5667 23.8667 19.9417 24.2833 19.4417 24.7833L17.4417 22.4167C18.3167 21.6 19.3583 20.9667 20.4917 20.5667C21.6167 20.1583 22.8 19.95 23.9917 19.95C25.3667 19.95 26.5 20.1417 27.3917 20.5333C28.2833 20.925 28.9917 21.4333 29.5083 22.0583C30.0167 22.675 30.3917 23.3917 30.5917 24.1667C30.7917 24.95 30.9 25.725 30.9 26.5083V35.9917H27.2833V34.0083L27.3 34ZM32.0667 20.4H36.3583L40.6833 31.7333H40.75L44.5917 20.4H48.625L41.3 39.3333C41.05 39.9917 40.75 40.625 40.4 41.2333C40.1 41.7667 39.7 42.2333 39.2333 42.6333C38.7667 43.025 38.2167 43.3167 37.6333 43.4917C37.0167 43.6833 36.2833 43.7833 35.425 43.7833C35.1 43.7833 34.775 43.7667 34.4417 43.7333C34.1 43.7 33.7583 43.6417 33.425 43.55L33.75 40.175C34.0083 40.2583 34.2583 40.3167 34.5083 40.3583C34.7583 40.4 34.9917 40.4083 35.2 40.4083C35.6083 40.4083 35.95 40.3583 36.2333 40.2667C36.5167 40.1667 36.75 40.0167 36.9417 39.8167C37.1333 39.6083 37.3083 39.3583 37.4583 39.05C37.6083 38.75 37.775 38.3917 37.9417 37.975L38.7167 35.9917L32.0667 20.4083V20.4ZM67.7333 32.2917C68.475 32.2917 69.4583 32.0167 69.85 31.8833V35C69.4583 35.15 68.6167 35.4417 67.7333 35.4417C64.6583 35.4417 62.1583 32.8917 62.15 29.75V20.3917H58.6333V17.3333H62.15V13.45H65.2083V17.3333H73.5417C72.35 18.1583 71.325 19.1917 70.525 20.3917H65.2083V29.75C65.2083 31.1583 66.3667 32.2917 67.7333 32.2917ZM80.2333 35.4417C75.2 35.4417 71.2333 31.45 71.2333 26.3833C71.2333 21.3167 75.275 17.325 80.2333 17.325H90.3833V14.5083L95.6083 18.875L90.375 23.2583V20.3833H80.1C76.95 20.3833 74.35 23.2167 74.35 26.375C74.35 29.5333 76.9417 32.3167 80.225 32.3167C83.5083 32.3167 86.1 29.6833 86.1 26.375C86.1 24.9167 85.5833 23.5583 84.9417 22.5833H88.3917C88.9333 23.75 89.2167 25.0917 89.2167 26.375C89.2167 31.4417 85.25 35.4333 80.2167 35.4333L80.2333 35.4417ZM89.325 0H63.4667C57.575 0 52.7917 4.80833 52.7917 10.7417V36.7667C52.7917 42.7 57.575 47.5083 63.4667 47.5083H89.325C95.2167 47.5083 100 42.7 100 36.7667V10.7417C100 4.80833 95.225 0 89.325 0Z" fill="black"/>
</svg>
