<svg viewBox="0 0 120 31" fill="none" xmlns="http://www.w3.org/2000/svg">
<path d="M90.0317 0V30.1061H95.4664V9.39782H95.6153L104.572 24.528H105.162L114.416 9.39782H114.565V30.1061H120V0H113.832L105.46 15.1302H105.311L96.4917 0H90.0317ZM0 0V30.1061H5.72688V9.69546H5.87571L19.8264 30.1116H25.8454V0H20.1185V20.1185H19.9697L6.16784 0H0ZM54.0499 18.6523C54.0499 26.4352 58.7515 30.8447 66.6832 30.8447C74.0251 30.8447 79.4598 26.4407 79.4598 18.6523V0H73.4408V18.6523C73.4408 22.3233 71.677 25.4099 66.6832 25.4099C61.6894 25.4099 60.0744 21.8878 60.0744 18.2114V0H54.0554V18.6523H54.0499ZM37.4535 0V30.1061H43.4725V0H37.4535Z" fill="black"/>
</svg>
