<svg viewBox="0 0 24 24" fill="none" xmlns="http://www.w3.org/2000/svg">
<path d="M19.0242 10.7248L20.5213 9.22766V5.93396L19.0242 7.43109V10.7248Z" fill="black"/>
<path d="M6.29852 16.6335L7.3565 17.6915L19.0242 6.0238L20.5213 4.51666V3.48864H14.8122L13.3151 4.98577H17.9462L6.29852 16.6335Z" fill="black"/>
<path d="M20.4638 11.7661V19.7352C20.4638 20.1444 20.1244 20.4838 19.7152 20.4838L3.54619 20.4837V21.9809H19.7152C20.9528 21.9809 21.9609 20.9728 21.9609 19.7352V13.2633L20.4638 11.7661Z" fill="black"/>
<path d="M4.28479 3.51623H12.2757L10.7786 2.0191H4.28479C3.04718 2.0191 2.03912 3.0271 2.03912 4.26477L2.03906 20.4837H3.53625V4.26477C3.53625 3.85553 3.87554 3.51623 4.28479 3.51623Z" fill="black"/>
</svg>
