<svg viewBox="0 0 100 44" fill="none" xmlns="http://www.w3.org/2000/svg">
<path fill-rule="evenodd" clip-rule="evenodd" d="M0.884153 0C0.589436 0 0.453412 0.136024 0.294718 0.294718C0.158694 0.430741 0 0.725459 0 0.884153V6.18907H6.18907V0H0.884153Z" fill="black"/>
<path fill-rule="evenodd" clip-rule="evenodd" d="M93.9923 9.86171L93.2668 11.3353L91.2038 15.0079L88.4153 19.8594L85.4681 25.1644V34.0059C85.4681 34.1419 85.4681 34.4366 85.3321 34.4366L85.0374 34.7314C84.9014 34.7314 84.7427 34.8674 84.7427 34.8674H81.7955C81.6595 34.8674 81.6595 34.7314 81.5008 34.7314C81.4101 34.6407 81.3648 34.5424 81.3648 34.4366V25.3457L75.6291 15.0306C74.9036 13.8517 74.3142 12.5368 73.5661 11.358L72.8406 9.88438V9.45364C72.8406 9.31762 72.9766 9.15892 72.9766 9.15892C72.8406 8.8642 73.1127 8.8642 73.4074 8.8642H76.1959C76.3319 8.8642 76.4906 8.8642 76.6266 9.00023C76.7626 9.00023 76.9213 9.13625 77.0574 9.29494C77.1934 9.43097 77.3521 9.58966 77.3521 9.88438L77.6468 10.3151L78.5309 12.0834L83.2464 20.3355L87.9619 12.0834L89.1408 9.72569C89.1408 9.58966 89.2768 9.29494 89.4355 9.13625C89.5715 9.00023 89.7302 8.84153 89.8662 8.84153H93.1081C93.4029 8.84153 93.6976 8.84153 93.8336 8.97756C93.9696 9.11358 93.9696 9.11358 93.9696 9.27227V9.56699C94.1283 9.72569 93.9923 9.86171 93.9923 9.86171ZM75.289 34.9127H72.5006C72.3645 34.9127 72.2058 34.9127 72.0698 34.7767C71.9338 34.6407 71.7751 34.6407 71.6391 34.482C71.5031 34.346 71.3444 34.1873 71.3444 33.8925L71.0496 32.8724L70.4602 31.3988L70.0295 30.0839V29.4944H57.946L57.81 30.0839L57.3793 31.3988L56.7898 32.8724L56.3591 33.8925C56.3591 34.0286 56.2231 34.3233 56.0644 34.482C55.9057 34.6407 55.7697 34.7767 55.6336 34.7767C55.4976 34.7767 55.3389 34.9127 55.2029 34.9127H52.4144C52.1197 34.9127 51.9837 34.9127 51.689 34.7767C51.5983 34.686 51.5529 34.5878 51.5529 34.482V34.0512L52.8678 30.3786C54.9309 24.9377 56.8352 19.474 58.8982 14.0331C59.7824 11.8341 60.3718 10.2018 60.3718 10.0657C60.5078 9.92972 60.5078 9.77103 60.6665 9.635C60.8025 9.34029 61.0973 9.20426 61.392 9.04557C61.9814 8.90954 62.2761 8.90954 62.4121 8.90954H65.4047C65.6994 8.90954 65.8354 8.90954 66.1301 9.04557C66.4249 9.18159 66.7196 9.34029 66.8556 9.635C66.9916 9.77103 66.9916 9.92972 67.1503 10.0657C67.2863 10.2018 67.8758 11.8341 68.6239 14.0331C69.3494 16.2321 70.5282 19.338 71.7071 22.2852L74.6543 30.3786L76.1279 34.2099V34.5046C76.1279 34.6407 75.9918 34.7994 75.9918 34.7994C75.7198 34.7767 75.4251 34.9127 75.289 34.9127ZM44.9331 25.4818H38.744V34.0286C38.744 34.1193 38.6987 34.2175 38.608 34.3233C38.608 34.4593 38.472 34.4593 38.472 34.618C38.336 34.754 38.1773 34.754 37.8826 34.754H35.3888C35.2528 34.754 35.0941 34.754 35.0941 34.618C34.9581 34.618 34.7994 34.482 34.7994 34.3233C34.6633 34.1873 34.6633 34.0286 34.6633 33.7338V9.56699C34.6633 9.43097 34.6633 9.27227 34.7994 9.27227C34.7994 9.13625 34.9354 9.13625 35.0941 8.97756C35.2301 8.84153 35.3888 8.84153 35.5248 8.84153H44.9558C49.5126 8.84153 53.2079 12.5142 53.2079 17.0936C53.2079 20.4715 51.1449 23.4187 48.1977 24.7563C47.1548 25.187 46.112 25.4818 44.9331 25.4818ZM99.1385 0H12.2195V6.18907H17.9551C19.4287 6.18907 20.7436 6.3251 22.0812 6.77851C23.26 7.20925 24.4389 7.79869 25.3231 8.54681C26.2072 9.27227 26.9327 10.3151 27.3861 11.494C27.8168 12.6729 28.1115 13.9878 28.1115 15.4613C28.1115 16.0508 28.1115 16.6402 27.9755 17.071C27.6808 18.0911 27.2501 19.134 26.5019 20.0181C26.2072 20.4489 25.7765 20.9023 25.4817 21.197C26.6606 21.9225 27.6808 23.1013 28.4289 24.4389C29.7438 26.7966 29.9025 29.7438 28.8597 32.2376C27.9755 34.3006 26.3659 36.0689 24.3029 36.9531C23.2827 37.3838 22.1038 37.6785 20.925 37.6785H7.07323C6.9372 37.6785 6.77851 37.6785 6.77851 37.5425C6.48379 37.4065 6.34777 37.2478 6.34777 37.1118V13.8517L9.4083 12.5595L10.2925 12.4235H0V42.7794C0 43.0741 0.136024 43.2102 0.294718 43.3689C0.453412 43.5275 0.725459 43.6636 0.884153 43.6636H99.1385C99.2745 43.6636 99.4332 43.6636 99.5693 43.5275C99.864 43.3915 100 43.2328 100 42.9381V0.725459C100 0.589436 99.864 0.430741 99.864 0.430741L99.5693 0.136024C99.4332 0 99.2972 0 99.1385 0Z" fill="black"/>
<path fill-rule="evenodd" clip-rule="evenodd" d="M17.6831 18.7032H18.8619C20.1768 18.7032 21.2197 17.9778 21.8091 16.7989C22.1038 16.0735 22.1038 15.1893 21.8091 14.3051C21.6731 13.8744 21.3784 13.5797 21.0837 13.285C20.4942 12.6955 19.7688 12.4008 18.8846 12.2648H12.2648V30.5373C12.2648 30.6733 12.2648 30.832 12.4008 30.968C12.4008 31.1041 12.5368 31.1041 12.5368 31.2628C12.6275 31.3534 12.7258 31.3988 12.8316 31.3988H20.925C21.8091 31.2628 22.5346 30.968 23.124 30.3786C24.4389 29.0637 24.3029 26.842 22.988 25.6631C22.3985 25.0737 21.5144 24.6429 20.6302 24.6429H17.2523C16.9576 24.6429 16.8216 24.3482 16.6629 24.2122C16.6629 24.0762 16.5269 23.9175 16.5269 23.7815V19.3834C16.5269 19.2473 16.6629 19.2473 16.6629 19.0886C16.7536 18.998 16.8518 18.9526 16.9576 18.9526C17.3883 18.7032 17.5244 18.7032 17.6831 18.7032ZM44.9331 13.1036H38.9027V21.3557H44.9331C45.9533 21.3557 46.9961 20.925 47.8803 20.1768C48.6058 19.4514 49.0592 18.4085 49.0592 17.2297C49.0592 16.0508 48.6284 15.0306 47.8803 14.2825C47.4496 13.8517 46.9961 13.557 46.5654 13.3983C45.976 13.2623 45.3865 13.1036 44.9331 13.1036ZM59.669 25.187H68.5105L67.3317 22.1038L66.1528 19.1567L63.7951 12.9903L60.7345 22.2399L59.669 25.187Z" fill="black"/>
</svg>
