<svg viewBox="0 0 24 24" fill="none" xmlns="http://www.w3.org/2000/svg">
<path d="M5.25232 10.0192C5.39435 6.38586 8.38666 3.47119 12.0542 3.47119C14.8577 3.47119 17.2693 5.17309 18.315 7.5968L19.437 6.47479C18.0519 3.80371 15.2656 1.97119 12.0542 1.97119C7.55951 1.97119 3.8952 5.55859 3.75232 10.0192H5.25232Z" fill="black"/>
<path d="M18.7664 22.0288H3.75171V11.5171H5.25171V20.5288H18.7664V22.0288Z" fill="black"/>
<path d="M20.2576 20.5337H18.7576V11.5171H5.24585V10.0171H20.2576V20.5337Z" fill="black"/>
<path d="M13.2704 14.6566C13.2704 13.9371 12.6871 13.3538 11.9676 13.3538C11.2481 13.3538 10.6648 13.9371 10.6648 14.6566C10.6648 15.0975 10.8852 15.4857 11.2204 15.7214V18.5658H12.7082V15.7268C13.0474 15.4916 13.2704 15.1006 13.2704 14.6566Z" fill="black"/>
</svg>
