<svg viewBox="0 0 1440 128" fill="none" xmlns="http://www.w3.org/2000/svg">
<path d="M1344 96V120C1344 124.29 1340.62 127.79 1336.38 127.99C1336.28 127.99 1342.9 127.99 1347.99 127.99H1439.99V95.99H1343.99L1344 96Z" fill="#2F1B5A"/>
<path d="M996 32H1024V4C1024 1.79 1022.21 0 1020 0H992V28C992 30.21 993.79 32 996 32Z" fill="#2F1B5A"/>
<path d="M100 32H128V4C128 1.79 126.21 0 124 0H96V28C96 30.21 97.79 32 100 32Z" fill="#2F1B5A"/>
<path d="M388 32H416V4C416 1.79 414.21 0 412 0H384V28C384 30.21 385.79 32 388 32Z" fill="#2F1B5A"/>
<path d="M1252 32H1280V4C1280 1.79 1278.21 0 1276 0H1248V28C1248 30.21 1249.79 32 1252 32Z" fill="#2F1B5A"/>
<path d="M1348 64H1376V36C1376 33.79 1374.21 32 1372 32H1344V60C1344 62.21 1345.79 64 1348 64Z" fill="#2F1B5A"/>
<path d="M1312 120V68C1312 65.79 1310.21 64 1308 64H1280V88C1280 92.42 1276.42 96 1272 96H1256C1251.58 96 1248 92.42 1248 88V68C1248 65.79 1246.21 64 1244 64H1192C1187.58 64 1184 60.42 1184 56V36C1184 33.79 1182.21 32 1180 32H1160C1155.58 32 1152 28.42 1152 24V4C1152 1.79 1150.21 0 1148 0H1120V28C1120 30.21 1121.79 32 1124 32H1144C1148.42 32 1152 35.58 1152 40V120C1152 124.29 1148.62 127.79 1144.38 127.99C1144.28 127.99 1150.9 127.99 1155.99 127.99H1311.99C1315.99 127.99 1319.68 127.99 1319.61 127.99C1315.37 127.79 1311.99 124.29 1311.99 120H1312Z" fill="#2F1B5A"/>
<path d="M1120 120V68C1120 65.79 1118.21 64 1116 64H1096C1091.58 64 1088 60.42 1088 56V36C1088 33.79 1086.21 32 1084 32H1056V88C1056 92.42 1052.42 96 1048 96H1032C1027.58 96 1024 92.42 1024 88V68C1024 65.79 1022.21 64 1020 64H992V88C992 92.42 988.42 96 984 96H936C931.58 96 928 92.42 928 88V72C928 67.58 931.58 64 936 64H960V36C960 33.79 958.21 32 956 32H928V56C928 60.42 924.42 64 920 64H872C867.58 64 864 60.42 864 56V36C864 33.79 862.21 32 860 32H840C835.58 32 832 28.42 832 24V4C832 1.79 830.21 0 828 0H800V28C800 30.21 801.79 32 804 32H824C828.42 32 832 35.58 832 40V88C832 92.42 828.42 96 824 96H808C803.58 96 800 92.42 800 88V68C800 65.79 798.21 64 796 64H768V92C768 94.21 769.79 96 772 96H792C796.42 96 800 99.58 800 104V120C800 124.29 796.62 127.79 792.38 127.99C792.28 127.99 798.9 127.99 803.99 127.99H895.99C899.99 127.99 903.68 127.99 903.61 127.99C899.37 127.79 895.99 124.29 895.99 120V104C895.99 99.58 899.57 96 903.99 96H919.99C924.41 96 927.99 99.58 927.99 104V120C927.99 124.29 924.61 127.79 920.37 127.99C920.27 127.99 926.89 127.99 931.98 127.99H991.98V127.85C992.3 127.93 992.62 127.99 992.96 127.99H1119.98C1123.98 127.99 1127.67 127.99 1127.6 127.99C1123.36 127.79 1119.98 124.29 1119.98 120H1120Z" fill="#2F1B5A"/>
<path d="M736 120V100C736 97.79 734.21 96 732 96H712C707.58 96 704 92.42 704 88V68C704 65.79 702.21 64 700 64H680C675.58 64 672 60.42 672 56V36C672 33.79 670.21 32 668 32H640V88C640 92.42 636.42 96 632 96H616C611.58 96 608 92.42 608 88V68C608 65.79 606.21 64 604 64H552C547.58 64 544 60.42 544 56V40C544 35.58 547.58 32 552 32H576V4C576 1.79 574.21 0 572 0H544V24C544 28.42 540.42 32 536 32H512V120C512 124.29 508.62 127.79 504.38 127.99C504.28 127.99 510.9 127.99 515.99 127.99H575.99C579.99 127.99 583.68 127.99 583.61 127.99C579.37 127.79 575.99 124.29 575.99 120V104C575.99 99.58 579.57 96 583.99 96H599.99C604.41 96 607.99 99.58 607.99 104V120C607.99 124.29 604.61 127.79 600.37 127.99C600.27 127.99 606.89 127.99 611.98 127.99H735.98C739.98 127.99 743.67 127.99 743.6 127.99C739.36 127.79 735.98 124.29 735.98 120H736Z" fill="#2F1B5A"/>
<path d="M480 120V100C480 97.79 478.21 96 476 96H456C451.58 96 448 92.42 448 88V72C448 67.58 451.58 64 456 64H480V36C480 33.79 478.21 32 476 32H448V56C448 60.42 444.42 64 440 64H416V88C416 92.42 412.42 96 408 96H392C387.58 96 384 92.42 384 88V68C384 65.79 382.21 64 380 64H360C355.58 64 352 60.42 352 56V36C352 33.79 350.21 32 348 32H320V56C320 60.42 316.42 64 312 64H256V88C256 92.42 252.42 96 248 96H232C227.58 96 224 92.42 224 88V68C224 65.79 222.21 64 220 64H200C195.58 64 192 60.42 192 56V36C192 33.79 190.21 32 188 32H160V56C160 60.42 156.42 64 152 64H128V88C128 92.42 124.42 96 120 96H72C67.58 96 64 92.42 64 88V68C64 65.79 62.21 64 60 64H32V88C32 92.42 28.42 96 24 96H0V128H160C164 128 167.69 128 167.62 128C163.38 127.8 160 124.3 160 120.01V104.01C160 99.59 163.58 96.01 168 96.01H216C220.42 96.01 224 99.59 224 104.01V120.01C224 124.3 220.62 127.8 216.38 128C216.28 128 222.9 128 227.99 128H319.99C323.99 128 327.68 128 327.61 128C323.37 127.8 319.99 124.3 319.99 120.01V72C319.99 67.59 323.57 64.01 327.99 64.01H343.99C348.41 64.01 351.99 67.59 351.99 72.01V120.02C351.99 124.31 348.61 127.8 344.37 128C344.27 128 350.89 128 355.98 128H415.98C417.39 128 418.76 128 419.94 128C419.95 128 419.96 128 419.98 128H479.98C483.98 128 487.67 128 487.6 128C483.36 127.8 479.98 124.3 479.98 120.01L480 120Z" fill="#2F1B5A"/>
</svg>
