<svg xmlns="http://www.w3.org/2000/svg" viewBox="0 0 24 24">
  <polygon fill="black" stroke-width="0" points="12.76 2.77 12.76 21.96 11.26 21.96 11.26 4.93 7.99 8.2 7.99 6.08 12.03 2.04 12.76 2.77"/>
  <polygon fill="black" stroke-width="0" points="16.16 6.17 16.08 6.17 16.08 8.21 13.8 5.93 13.8 3.81 16.16 6.17"/>
  <polygon fill="black" stroke-width="0" points="19.51 10.12 18.01 11.62 16.25 11.62 17.75 10.12 19.51 10.12"/>
  <polygon fill="black" stroke-width="0" points="21.98 10.12 21.98 14.68 20.48 16.17 20.48 12.68 13.75 19.42 13.75 17.3 16.78 14.26 20.93 10.12 21.98 10.12"/>
  <polygon fill="black" stroke-width="0" points="7.71 11.51 5.99 11.51 4.5 10.01 6.21 10.01 7.71 11.51"/>
  <polygon fill="black" stroke-width="0" points="10.25 17.23 10.25 19.35 3.47 12.57 3.47 16.06 1.97 14.55 1.97 10.01 3.03 10.01 8.76 15.74 10.25 17.23"/>
  <line fill="none" x1="5.99" y1="11.51" x2="4.5" y2="10.01"/>
</svg>