<svg viewBox="0 0 100 48" fill="none" xmlns="http://www.w3.org/2000/svg">
<path d="M0 12.9906H7.45216C8.7662 12.9906 9.94797 13.114 10.9974 13.3433C12.0469 13.5814 12.9553 13.9695 13.7049 14.5163C14.4545 15.0542 15.0366 15.7509 15.4511 16.5976C15.8568 17.4442 16.0596 18.4584 16.0596 19.649C16.0596 20.9278 15.8215 21.9949 15.3541 22.8592C14.8779 23.7234 14.2429 24.4201 13.4315 24.9493C12.6202 25.4784 11.6853 25.8665 10.6094 26.1046C9.53347 26.3427 8.3958 26.4574 7.18758 26.4574H4.0568V35.9732H0V12.9906ZM6.90537 23.0267C7.5668 23.0267 8.2106 22.9826 8.8103 22.8768C9.41 22.7798 9.94797 22.6034 10.4242 22.3565C10.9004 22.1095 11.2708 21.7656 11.553 21.3335C11.8353 20.9013 11.9764 20.3369 11.9764 19.6402C11.9764 18.9435 11.8353 18.4231 11.553 17.9998C11.2708 17.5765 10.9004 17.2502 10.4418 17.0121C9.97442 16.774 9.4541 16.6152 8.86322 16.5447C8.27234 16.4653 7.66382 16.43 7.03766 16.43H4.06561V23.0179H6.90537V23.0267Z" fill="black"/>
<path d="M27.2952 33.9977H27.1982C26.8101 34.6944 26.184 35.2588 25.3285 35.6998C24.4642 36.1408 23.4941 36.3701 22.3917 36.3701C21.7656 36.3701 21.1218 36.2907 20.4427 36.1231C19.7636 35.9556 19.1375 35.691 18.5731 35.3118C17.9998 34.9325 17.5324 34.4387 17.1532 33.8213C16.774 33.204 16.5888 32.4367 16.5888 31.5284C16.5888 30.3554 16.9151 29.4294 17.5765 28.7327C18.2379 28.036 19.0758 27.5068 20.1076 27.1453C21.1394 26.7748 22.2859 26.5367 23.5471 26.4133C24.8082 26.2986 26.034 26.2369 27.2423 26.2369V25.8488C27.2423 24.8787 26.8895 24.1556 26.1928 23.6882C25.4961 23.2207 24.6583 22.9914 23.6882 22.9914C22.868 22.9914 22.0831 23.1678 21.3335 23.5118C20.5838 23.8557 19.9577 24.279 19.4638 24.7729L17.4619 22.4006C18.3438 21.5804 19.358 20.963 20.5133 20.5485C21.6686 20.1341 22.8327 19.9312 24.0145 19.9312C25.3902 19.9312 26.5279 20.1252 27.4186 20.5133C28.3094 20.9013 29.0149 21.4128 29.5352 22.039C30.0556 22.6651 30.4083 23.3707 30.62 24.1467C30.8228 24.9228 30.9287 25.7077 30.9287 26.4838V35.9644H27.3128L27.2952 33.9977ZM27.2334 28.865H26.3603C25.7342 28.865 25.0816 28.8914 24.3937 28.9444C23.7058 28.9973 23.0708 29.1207 22.4888 29.2971C21.9067 29.4823 21.4216 29.7381 21.0336 30.0732C20.6456 30.4083 20.4515 30.8669 20.4515 31.4578C20.4515 31.8282 20.5309 32.1369 20.6985 32.3838C20.8572 32.6307 21.0689 32.8336 21.3246 32.9835C21.5804 33.1334 21.8714 33.2393 22.1977 33.3098C22.524 33.3716 22.8415 33.4068 23.1678 33.4068C24.4995 33.4068 25.5137 33.0541 26.2016 32.3397C26.8895 31.6254 27.2334 30.6464 27.2334 29.4206V28.865Z" fill="black"/>
<path d="M32.0575 20.3898H36.3524L40.6738 31.7224H40.7355L44.5718 20.3898H48.6022L41.2735 39.3156C40.9913 40.03 40.6914 40.665 40.3739 41.2117C40.0564 41.7674 39.6684 42.2259 39.2098 42.6052C38.76 42.9844 38.2221 43.2754 37.6135 43.4694C37.005 43.6635 36.2642 43.7605 35.3999 43.7605C35.0736 43.7605 34.7473 43.7428 34.4122 43.7164C34.0771 43.6811 33.742 43.6282 33.398 43.54L33.7155 40.1623C33.9712 40.2505 34.227 40.3122 34.4739 40.3387C34.7209 40.3739 34.9502 40.3828 35.1707 40.3828C35.5763 40.3828 35.9203 40.3387 36.2025 40.2328C36.4847 40.1358 36.7228 39.9859 36.908 39.7742C37.102 39.5714 37.2696 39.3156 37.4283 39.0158C37.5783 38.7159 37.737 38.3544 37.9134 37.9487L38.6895 35.9644L32.0575 20.3898Z" fill="black"/>
<path d="M89.3289 0H63.4712C57.58 0 52.8001 4.80642 52.8001 10.7417V36.7669C52.8001 42.7022 57.58 47.5086 63.4712 47.5086H89.3289C95.22 47.5086 100 42.7022 100 36.7669V10.7329C100 4.80642 95.22 0 89.3289 0ZM72.8018 11.553L74.1423 11.3855C74.257 11.3767 76.9556 11.0504 80.0864 11.7118C84.4166 12.629 87.4769 14.966 88.9496 18.4761L86.1363 19.6666C84.1344 14.8779 78.4549 14.3399 75.8532 14.3575V28.6004H72.8018V11.553ZM63.1714 13.5021C63.1714 12.2321 64.1944 11.2091 65.4555 11.2091C66.7166 11.2091 67.7397 12.2321 67.7397 13.5021C67.7397 14.772 66.7166 15.795 65.4555 15.795C64.1944 15.795 63.1714 14.772 63.1714 13.5021ZM89.6993 26.572C89.5317 27.6568 89.2848 28.6357 88.9673 29.3941C86.9036 34.2799 82.0796 36.7581 74.645 36.7581H63.8152V19.8077H66.8666V33.689H74.6362C80.7302 33.689 84.6106 31.837 86.1452 28.1947C86.3215 27.7714 86.4803 27.207 86.5949 26.572H84.0639L88.4205 21.0689L92.786 26.5808H89.6993V26.572Z" fill="black"/>
</svg>
