<svg viewBox="0 0 60 80" fill="none" xmlns="http://www.w3.org/2000/svg">
<path d="M29.9746 10.8169C19.3404 10.8169 10.6951 19.4622 10.6951 30.0964C10.6951 38.6809 16.3166 45.9665 24.1096 48.4627V34.6017H26.1187V41.1568H33.79V34.6017H35.8194V48.483C43.6124 46.0071 49.2745 38.7012 49.2745 30.0964C49.2745 19.4622 40.6088 10.8169 29.9746 10.8169Z" fill="black"/>
<path d="M29.9746 0C13.4201 0 0 13.4201 0 29.9746C0 46.5292 13.4201 59.9493 29.9746 59.9493C46.5292 59.9493 59.9493 46.5292 59.9493 29.9746C59.9493 13.4201 46.5292 0 29.9746 0ZM33.8102 51.0807V42.8209H26.1187V51.0807C16.1745 49.2542 8.64535 40.5479 8.64535 30.1167C8.64535 18.346 18.204 8.78743 29.9543 8.78743C41.725 8.78743 51.3039 18.346 51.3039 30.0964C51.3039 40.5479 43.7544 49.2745 33.8102 51.0807Z" fill="black"/>
<path d="M22.4556 76.9356H20.0812V72.5723H15.4338V76.9356H13.0594V66.7478H15.4338V70.8879H20.0812V66.7478H22.4556V76.9356Z" fill="black"/>
<path d="M26.5145 69.3658L26.5753 70.2385C26.8798 69.9137 27.2248 69.6702 27.6509 69.4673C28.0771 69.3049 28.5439 69.2035 29.0512 69.2035C29.4571 69.2035 29.8224 69.2643 30.1674 69.3658C30.5124 69.4673 30.7763 69.6296 31.0401 69.8529C31.2836 70.0761 31.4663 70.3805 31.588 70.7458C31.7098 71.1314 31.7707 71.5576 31.7707 72.1055V76.9356H29.4774V72.1055C29.4774 71.862 29.4368 71.6793 29.376 71.4967C29.3151 71.3344 29.2136 71.2329 29.0918 71.1111C28.9701 71.0299 28.8483 70.9488 28.6657 70.9285C28.5033 70.9082 28.3004 70.8676 28.0771 70.8676C27.7321 70.8676 27.4683 70.9285 27.2045 71.0502C26.9609 71.1923 26.7783 71.3546 26.6159 71.5982V76.9356H24.3227V69.3658H26.5145Z" fill="black"/>
<path d="M38.3663 71.2735C38.2445 71.2532 38.1228 71.2532 37.9604 71.2532C37.7981 71.2532 37.656 71.2329 37.5342 71.2329C37.0675 71.2329 36.7225 71.2938 36.4586 71.4155C36.1948 71.5373 35.9716 71.7402 35.8498 71.9838V76.9356H33.5566V69.3658H35.7281L35.7889 70.2588C36.0122 69.934 36.276 69.6905 36.6007 69.4876C36.9051 69.3049 37.2907 69.2237 37.7169 69.2237C37.8387 69.2237 37.9604 69.2237 38.0822 69.244C38.204 69.2643 38.3257 69.2643 38.4272 69.3049L38.3663 71.2735Z" fill="black"/>
<path d="M42.8311 74.0741L44.414 69.3658H46.8899L43.4602 78.072C43.3587 78.2547 43.2775 78.4779 43.1558 78.7012C43.034 78.9244 42.8716 79.1273 42.6687 79.3303C42.4455 79.5129 42.2019 79.6753 41.8975 79.8174C41.5931 79.9594 41.1872 80 40.761 80H40.4769C40.3755 80 40.3146 79.9797 40.2334 79.9797C40.1319 79.9797 40.071 79.9594 39.9899 79.9594C39.929 79.9391 39.8275 79.9391 39.7463 79.8985V78.3765H40.1116C40.3349 78.3765 40.5378 78.3562 40.7002 78.3156C40.8625 78.275 41.0046 78.2344 41.1263 78.1735C41.2481 78.1126 41.3496 78.0112 41.4308 77.93C41.5322 77.8285 41.5931 77.7067 41.654 77.585L41.8975 77.0167L38.894 69.4267H41.3293L42.8311 74.0741Z" fill="black"/>
</svg>
