<svg width="1200" height="1200" viewBox="0 0 1200 1200" fill="none" xmlns="http://www.w3.org/2000/svg">
<path fill-rule="evenodd" clip-rule="evenodd" d="M825 1076.58H834.536C836.128 1076.89 837.613 1077 839.311 1077H1077V908.301H1101.07C1109.61 908.218 1116.53 901.3 1116.66 892.716V825H1189.58C1195.33 825 1200 829.667 1200 835.418V908.384H1132.28C1123.74 908.509 1116.82 915.427 1116.7 923.969V1200H835.418C829.667 1200 825 1195.33 825 1189.58V1076.58Z" fill="#6639B7"/>
<path d="M243.347 55.4272C243.469 47.1172 250.202 40.4207 258.518 40.3401H365V10.085C365 4.51809 360.457 0 354.859 0H243.306V25.2125C243.185 33.4822 236.451 40.1787 228.135 40.2997H121.653V146.192C121.531 154.462 114.798 161.159 106.482 161.28H0V231.875C0 237.442 4.54323 241.96 10.1411 241.96H121.694V176.407C121.815 168.097 128.549 161.401 136.865 161.32H228.135C236.451 161.481 243.185 168.178 243.306 176.447V231.915C243.306 237.482 247.85 242 253.447 242H365V171.405C365 165.838 360.457 161.32 354.859 161.32H258.518C250.162 161.199 243.428 154.502 243.347 146.192V55.4272Z" fill="#6639B7"/>
</svg>
