<svg viewBox="0 0 160 28" fill="none" xmlns="http://www.w3.org/2000/svg">
<g id="Wagepay Logo">
<g id="Wagepay Logo_2">
<path d="M146.977 19.6L141.309 1.14173H146.744L150.824 15.298H151.502L154.872 1.14173H160L154.84 21.5285C154.458 23.0013 153.939 24.1669 153.293 25.0358C152.668 25.9046 151.809 26.5298 150.728 26.8901C149.669 27.2821 148.334 27.4729 146.713 27.4729H143.407V22.7894H147.253C148.111 22.7894 148.768 22.6199 149.245 22.2702C149.743 21.9205 150.103 21.306 150.326 20.4159L150.495 19.5894H146.988L146.977 19.6Z" fill="none"/>
<path d="M4.95894 20.0133L0 1.14173H5.29801L8.77351 15.4358H9.51523L12.0477 1.7563H17.9497L20.853 15.4252H21.5629L24.7099 1.14173H29.6689L25.2185 20.0133H17.6954L14.9298 7.6159L12.4715 20.0133H4.95894ZM38.0079 20.4901C36.0053 20.4901 34.3841 19.9603 33.1444 18.9007C31.9258 17.8411 31.3219 16.3576 31.3219 14.4186C31.3219 13.0411 31.6715 11.9179 32.3709 11.049C33.0702 10.1484 34.045 9.502 35.306 9.08875C36.5669 8.65431 38.0185 8.4318 39.6609 8.4318H42.9987V8.35763C42.9987 6.42915 42.0556 5.46491 40.1695 5.46491C39.6715 5.46491 39.0252 5.4861 38.2093 5.53908C37.3616 5.56028 36.5245 5.60266 35.6768 5.64504C34.9139 5.66623 34.151 5.69802 33.3775 5.751V1.09935C34.1616 1.03577 35.1364 0.972195 36.2808 0.929811C37.3404 0.866235 38.4 0.834447 39.449 0.823851C42.2781 0.823851 44.4397 1.43842 45.9338 2.67816C47.4384 3.8967 48.1907 5.81458 48.1907 8.4318V20.0027H43.8993V16.453C43.4967 17.7669 42.7973 18.7629 41.8119 19.4517C40.8265 20.1404 39.555 20.4901 37.9973 20.4901M39.6291 16.6649C40.5086 16.6649 41.2715 16.4106 41.9285 15.902C42.5854 15.3934 42.9457 14.4291 43.0093 13.0093V11.4941H39.6291C38.6861 11.4941 37.955 11.7378 37.4358 12.2146C36.9377 12.6914 36.694 13.3272 36.694 14.1113C36.694 14.8954 36.9377 15.4888 37.4358 15.9762C37.955 16.4318 38.6861 16.6649 39.6291 16.6649ZM60.0689 27.5152C58.2781 27.5152 56.4768 27.3881 54.7073 27.1338V22.4821C55.4914 22.5987 56.3603 22.6835 57.3033 22.7576C58.2464 22.853 59.1258 22.8954 59.9311 22.8954C62.1139 22.8954 63.6927 22.5033 64.657 21.7298C65.6424 20.9669 66.1404 19.7695 66.1404 18.1166V16.4636C65.5576 17.6609 64.7205 18.5722 63.6397 19.2186C62.5801 19.8331 61.3298 20.151 59.8993 20.151C58.2146 20.151 56.7523 19.7484 55.5126 18.9431C54.2728 18.1166 53.3192 16.9934 52.6411 15.5735C51.9629 14.1537 51.6238 12.5537 51.6238 10.7841V9.98941C51.6238 8.19869 51.9841 6.59869 52.7046 5.20001C53.4252 3.78014 54.4212 2.65696 55.7033 1.83047C57.0066 1.00398 58.5113 0.590738 60.2278 0.590738C61.8278 0.590738 63.1947 0.982791 64.3497 1.7669C65.494 2.551 66.3629 3.67418 66.9457 5.13643V1.14173H71.2371V17.7775C71.2371 21.2636 70.3152 23.7537 68.4715 25.2477C66.649 26.7629 63.8517 27.5258 60.0689 27.5258M61.5947 15.4993C62.8344 15.4993 63.8834 15.0861 64.7311 14.2596C65.6106 13.4119 66.045 12.2252 66.045 10.7099V9.71392C66.045 8.72849 65.8331 7.902 65.4093 7.23445C65.0278 6.5669 64.4662 6.0371 63.7881 5.68743C63.1311 5.32716 62.3788 5.13643 61.6265 5.13643C60.2596 5.13643 59.1364 5.61326 58.2887 6.58809C57.4517 7.53114 57.0384 8.79206 57.0384 10.3709C57.0384 11.9497 57.4622 13.2424 58.3205 14.1537C59.1788 15.0543 60.2702 15.4993 61.5947 15.4993ZM84.3867 20.6596C82.8079 20.6596 81.4199 20.3841 80.2013 19.8331C79.0146 19.2821 78.0079 18.551 77.2026 17.6291C76.4079 16.7073 75.7828 15.6477 75.3801 14.4927C74.9775 13.3378 74.7762 12.1298 74.7762 10.9113V10.2225C74.7762 8.98279 74.9775 7.77484 75.3801 6.60928C75.7722 5.45431 76.3973 4.39471 77.2026 3.47286C78.0185 2.551 79.0146 1.80928 80.1377 1.30067C81.3033 0.749679 82.6596 0.474182 84.1854 0.474182C86.1669 0.474182 87.8305 0.929811 89.1762 1.85167C90.5324 2.72054 91.6132 3.94968 92.3126 5.40133C93.0331 6.87418 93.3934 8.45299 93.3934 10.159V12.0239H79.8623C80.0424 13.306 80.4874 14.3338 81.2079 15.0861C81.9497 15.8172 83.0093 16.1881 84.3762 16.1881C85.3404 16.1881 86.1457 16.008 86.7709 15.6371C87.4172 15.245 87.8622 14.7576 88.0848 14.1537H93.0437C92.6411 16.0821 91.6556 17.6503 90.1086 18.8689C88.5828 20.0662 86.6649 20.6596 84.3656 20.6596M84.1854 4.9563C83.0199 4.9563 82.0556 5.30597 81.3139 5.99471C80.5934 6.66226 80.1377 7.6265 79.9258 8.88743H88.2225C88.0424 7.6265 87.6079 6.66226 86.9086 5.99471C86.2305 5.30597 85.3192 4.9669 84.1748 4.9669M96.9854 26.9007V1.14173H101.266V5.93114C101.807 4.18279 102.707 2.86888 103.968 1.96822C105.25 1.04637 106.744 0.590738 108.461 0.590738C110.177 0.590738 111.65 1.01458 112.911 1.86226C114.193 2.68875 115.179 3.82253 115.878 5.27418C116.599 6.71524 116.959 8.34703 116.959 10.159V10.9537C116.959 12.7656 116.62 14.408 115.942 15.8808C115.264 17.3537 114.299 18.5086 113.038 19.3563C111.777 20.204 110.252 20.6278 108.45 20.6278C107.189 20.6278 106.034 20.3841 104.975 19.9073C103.926 19.4305 103.025 18.6676 102.379 17.7033V26.9007H96.9748H96.9854ZM106.935 16.0186C108.313 16.0186 109.415 15.5099 110.241 14.5033C111.099 13.4967 111.523 12.1722 111.523 10.5404C111.523 8.90862 111.099 7.6371 110.241 6.65167C109.404 5.66624 108.302 5.16822 106.935 5.16822C106.119 5.16822 105.325 5.36955 104.604 5.751C103.905 6.14306 103.332 6.70465 102.887 7.43577C102.464 8.1669 102.241 9.04637 102.241 10.053V11.3245C102.241 12.3099 102.464 13.1576 102.919 13.8676C103.375 14.5351 103.989 15.0861 104.71 15.4464C105.43 15.8172 106.172 15.9974 106.935 15.9974M125.976 20.4901C123.974 20.4901 122.352 19.9603 121.113 18.9007C119.894 17.8411 119.29 16.3576 119.29 14.4186C119.29 13.0411 119.64 11.9179 120.339 11.049C121.038 10.1484 122.013 9.502 123.274 9.08875C124.535 8.65431 125.987 8.4318 127.629 8.4318H130.967V8.35763C130.967 6.42915 130.024 5.46491 128.127 5.46491C127.629 5.46491 126.983 5.4861 126.167 5.53908C125.362 5.56028 124.514 5.59206 123.634 5.64504C122.776 5.66623 122.013 5.69802 121.335 5.751V1.09935C122.119 1.03577 123.094 0.972195 124.238 0.929811C125.298 0.866235 126.358 0.834447 127.407 0.823851C130.246 0.823851 132.397 1.43842 133.891 2.67816C135.396 3.8967 136.148 5.81458 136.148 8.4318V20.0027H131.857V16.453C131.454 17.7669 130.755 18.7629 129.77 19.4517C128.784 20.1404 127.502 20.4901 125.955 20.4901M127.597 16.6649C128.477 16.6649 129.24 16.4106 129.897 15.902C130.554 15.3934 130.914 14.4291 130.977 13.0093V11.4941H127.608C126.665 11.4941 125.934 11.7378 125.415 12.2146C124.917 12.6914 124.673 13.3272 124.673 14.1113C124.673 14.8954 124.917 15.4888 125.415 15.9762C125.934 16.4318 126.665 16.6649 127.608 16.6649M143.83 19.6L138.162 1.14173H143.597L147.677 15.298H148.355L151.735 1.14173H156.864L151.703 21.5285C151.322 23.0013 150.803 24.1669 150.156 25.0464C149.521 25.9152 148.673 26.5404 147.592 26.9007C146.532 27.2927 145.197 27.4835 143.576 27.4835H140.27V22.8H144.117C144.975 22.8 145.632 22.6305 146.109 22.2808C146.607 21.9311 146.967 21.3166 147.189 20.4265L147.359 19.6H143.83Z" fill="white"/>
</g>
</g>
</svg>
