<svg viewBox="0 0 160 46" fill="none" xmlns="http://www.w3.org/2000/svg">
<g id="Sharesies Logo">
<path id="Sharesies Logo_2" d="M139.899 15.7259L139.494 16.2272C138.267 17.7738 134.203 23.299 133.766 29.2081C133.521 32.5467 134.374 35.3732 136.241 37.3678C138.171 39.4371 141.147 40.5357 144.827 40.5357C148.507 40.5357 151.344 39.5331 153.147 37.5385C154.96 35.5332 155.717 32.536 155.333 28.8775C154.757 23.3416 151.451 18.1792 150.054 16.2166L149.702 15.7259H155.184L155.28 15.8752C157.083 18.8511 159.355 23.4376 159.877 28.4081C160.4 33.3893 159.248 37.5918 156.539 40.5784C153.872 43.5223 149.83 45.0796 144.827 45.0796C139.825 45.0796 135.718 43.4796 132.902 40.4611C130.193 37.5598 128.881 33.4426 129.222 28.8775C129.606 23.6616 131.836 19.3418 133.862 16.2806L134.225 15.7259H139.899ZM7.87173 17.4858C11.1143 17.5178 13.7809 19.3098 15.0075 22.275L15.0822 22.467L11.4983 24.2376L11.4023 24.0136C11.3063 23.779 11.1996 23.5656 11.093 23.363C10.8263 22.8403 10.4743 22.2963 10.005 21.859C9.19435 21.1124 7.32775 20.6111 6.04779 21.6457C5.65314 21.9657 5.17316 22.6483 5.17316 23.4803C5.17316 24.5576 5.93047 25.3042 7.70107 25.9762L10.3463 26.9682C13.8662 28.2908 15.5088 30.2427 15.5088 33.0906C15.5088 36.9305 12.3622 39.7144 8.01039 39.7144C4.25586 39.7144 1.29062 37.6985 0.0639978 34.3066L0 34.1146L3.63721 32.44C3.78654 32.856 4.33052 34.2319 5.55714 35.2986C6.21845 35.8746 8.31972 36.8452 10.069 35.5972C10.5276 35.2772 10.805 34.8506 10.9756 34.4666C11.157 34.1466 11.2636 33.7626 11.2636 33.3146C11.2636 32.0774 10.4743 31.2454 8.7037 30.6161L6.15446 29.7201C2.70924 28.5148 0.959967 26.4775 0.959967 23.683C0.959967 20.0351 3.7972 17.4858 7.87173 17.4858ZM118.545 23.4163C121.169 23.4163 123.377 24.7709 124.401 26.9149L121.34 28.4935C120.743 27.2668 119.761 26.4455 118.545 26.4455C117.457 26.4455 116.604 26.9789 116.604 27.8642C116.604 28.6215 117.223 29.1548 118.407 29.5388L120.316 30.1361C123.334 31.0854 124.55 32.5893 124.55 34.6373C124.55 37.7838 121.788 39.6184 118.631 39.6184C115.633 39.6184 113.308 38.0718 112.38 35.6826L115.473 34.1359C116.028 35.5546 117.255 36.5039 118.695 36.5039C119.879 36.5039 120.86 35.9706 120.86 34.8933C120.86 34.0719 120.263 33.6026 119.015 33.2293L117.073 32.632C114.279 31.7787 112.967 30.2961 112.967 28.1628C112.967 25.2616 115.463 23.4376 118.524 23.4376L118.545 23.4163ZM82.6745 23.4163C85.2984 23.4163 87.5064 24.7709 88.5303 26.9149L85.4691 28.4935C84.8824 27.2668 83.8905 26.4455 82.6745 26.4455C81.5866 26.4455 80.7333 26.9789 80.7333 27.8642C80.7333 28.6215 81.3626 29.1548 82.5465 29.5388L84.4558 30.1361C87.485 31.0854 88.701 32.5893 88.701 34.6373C88.701 37.7838 85.9384 39.6184 82.7812 39.6184C79.7946 39.6184 77.4587 38.0718 76.5307 35.6826L79.624 34.1359C80.1786 35.5546 81.4052 36.5039 82.8452 36.5039C84.0291 36.5039 85.0104 35.9706 85.0104 34.8933C85.0104 34.0719 84.4238 33.6026 83.1652 33.2293L81.2239 32.632C78.4293 31.7787 77.1174 30.2961 77.1174 28.1628C77.1174 25.2616 79.6133 23.4376 82.6745 23.4376V23.4163ZM104.092 23.5336C109.074 23.5336 111.58 27.2029 111.58 31.3307C111.58 31.7574 111.548 32.184 111.495 32.6107H100.754C100.989 34.4453 102.226 36.2799 104.38 36.2799C106.13 36.2799 107.079 35.4906 107.623 33.9226L111.303 34.4133C110.738 37.3785 108.092 39.6078 104.274 39.6078C100.039 39.6078 96.6687 36.6212 96.6687 31.5867C96.6687 26.5522 99.8046 23.5336 104.092 23.5336ZM68.2217 23.5336C73.2028 23.5336 75.7201 27.2029 75.7201 31.3307C75.7201 31.7574 75.6881 32.184 75.6348 32.6107H64.8938C65.1284 34.4453 66.3657 36.2799 68.5203 36.2799C70.2696 36.2799 71.2189 35.4906 71.7629 33.9226L75.4428 34.4133C74.8775 37.3785 72.2322 39.6078 68.4137 39.6078C64.1791 39.6078 60.8086 36.6212 60.8086 31.5867C60.8086 26.5522 63.9445 23.5336 68.2323 23.5336H68.2217ZM39.988 23.555C41.9612 23.555 43.5079 24.2909 44.5105 25.3682L44.5745 23.8643H48.6917C48.2437 26.5629 48.0944 36.5785 48.6277 39.2664H44.6065L44.5105 37.5385C43.5079 38.7438 41.8972 39.5758 39.9346 39.5758C36.7134 39.5758 32.6282 36.9838 32.6282 31.5654C32.6282 26.1469 36.5748 23.555 39.9986 23.555H39.988ZM16.8954 17.5285C17.8554 17.5285 19.0927 17.5925 21.4713 17.5925C21.4713 17.5925 21.1726 20.3551 21.1086 25.1443C24.3298 22.5097 27.8071 23.459 29.151 24.6429C30.3563 25.6989 31.0816 27.3628 31.1029 29.6881C31.1349 32.7813 30.9109 35.8639 31.4016 39.2878L26.9218 39.2451C27.1457 36.9092 27.1884 34.8826 27.1884 33.24C27.1884 31.288 27.3911 28.7281 26.2498 27.6402C25.3111 26.7442 23.6259 26.7975 22.6232 27.7788C21.6526 28.7281 21.2579 30.7761 21.2579 34.5733C21.2579 35.9386 21.2899 37.8585 21.4286 39.2984C21.4286 39.2984 17.4074 39.3411 16.8421 39.3411C17.5781 34.2106 17.5034 23.587 16.8848 17.5605L16.8954 17.5285ZM54.8355 23.875C54.7395 25.2083 54.6328 26.6802 54.6328 26.6802C55.8808 24.9416 57.662 23.907 60.2859 23.875L60.222 27.9495C57.4487 27.5015 55.0701 29.0695 55.0381 33.6986C55.0061 36.0879 55.2728 39.2664 55.2728 39.2664C53.6835 39.2664 50.8783 39.2238 50.8783 39.2238C51.3582 33.2186 50.9529 24.7176 50.6969 23.843C51.9022 23.843 54.8355 23.8643 54.8355 23.8643V23.875ZM95.0261 23.8536C94.7381 25.6242 94.6101 28.8348 94.5994 31.6614C94.5888 34.6266 94.6954 37.2292 94.8874 39.2664H93.7141C92.5729 39.2664 91.5169 39.2664 90.6103 39.2664C90.7489 37.2505 90.8449 34.5946 90.8449 31.608C90.8449 28.6961 90.7596 25.4429 90.5356 23.8643H90.6316C91.0902 23.8643 93.1062 23.8536 95.0368 23.8536H95.0261ZM40.6173 27.0109C38.388 27.0109 36.6814 28.9415 36.6814 31.5654C36.6814 34.1893 38.388 36.1519 40.6173 36.1519C42.8465 36.1519 44.3718 34.0826 44.3718 31.5654C44.3718 29.0481 42.7825 27.0109 40.6173 27.0109ZM141.915 30.9147C143.142 30.9147 144.144 32.728 144.144 34.9679H139.686C139.686 32.728 140.689 30.9147 141.915 30.9147ZM147.259 30.9147C148.486 30.9147 149.488 32.728 149.488 34.9679H145.03C145.03 32.728 146.032 30.9147 147.259 30.9147ZM68.563 26.7015C66.0671 26.7015 65.1284 28.5788 64.9045 30.0401H71.7522C71.7309 28.4828 70.5149 26.7015 68.563 26.7015ZM104.434 26.7015C101.938 26.7015 100.999 28.5788 100.775 30.0401H107.623C107.602 28.4828 106.386 26.7015 104.434 26.7015ZM149.936 25.7629C151.163 25.7629 152.165 27.5762 152.165 29.8161H147.707C147.707 27.5762 148.71 25.7629 149.936 25.7629ZM144.592 25.7629C145.819 25.7629 146.822 27.5762 146.822 29.8161H142.363C142.363 27.5762 143.366 25.7629 144.592 25.7629ZM139.249 25.7629C140.475 25.7629 141.478 27.5762 141.478 29.8161H137.019C137.019 27.5762 138.022 25.7629 139.249 25.7629ZM147.259 20.6111C148.486 20.6111 149.488 22.4243 149.488 24.6643H145.03C145.03 22.4243 146.032 20.6111 147.259 20.6111ZM141.915 20.6111C143.142 20.6111 144.144 22.4243 144.144 24.6643H139.686C139.686 22.4243 140.689 20.6111 141.915 20.6111ZM92.9568 16.3979C94.3755 16.3979 95.4528 17.4752 95.4528 18.8511C95.4528 20.4404 94.3435 21.443 92.9035 21.443C91.4636 21.443 90.2689 20.4937 90.2689 18.9045C90.2689 17.3152 91.4849 16.3872 92.9675 16.3872L92.9568 16.3979ZM149.371 0.921078C153.477 0.88908 154.149 5.13427 154.149 5.13427C154.149 5.13427 150.63 4.41963 148.059 5.92357C146.427 6.87288 145.467 9.1128 144.987 10.6274C145.616 9.16613 147.142 6.88354 150.523 6.86221C155.397 6.83021 156.379 11.662 156.453 12.0887V12.1207C156.453 12.1207 152.091 10.6381 148.902 12.0674C145.712 13.4967 144.592 17.5498 144.592 17.5605C144.518 17.3152 143.376 13.454 140.283 12.0674C137.094 10.6381 132.721 12.1207 132.721 12.1207C132.721 12.1207 133.563 6.83021 138.651 6.86221C142.032 6.88354 143.558 9.16613 144.187 10.6274C143.707 9.1128 142.747 6.87288 141.115 5.92357C138.545 4.41963 135.025 5.13427 135.025 5.13427C135.025 5.13427 135.697 0.88908 139.803 0.921078C143.803 0.953077 144.582 6.1049 144.582 6.12624C144.582 6.1049 145.371 0.953077 149.36 0.921078H149.371Z" fill="black"/>
</g>
</svg>
