<svg viewBox="0 0 120 42" fill="none" xmlns="http://www.w3.org/2000/svg">
<g id="SBI Logo">
<g id="Vector">
<path d="M74.2533 5.12528L70.5668 12.2224C70.5668 12.2224 65.9931 8.11198 61.5081 8.34855C57.0232 8.58512 57.0725 11.4732 57.0725 12.2224C57.0725 12.9715 57.6343 14.6965 59.6451 15.5344C61.656 16.3722 70.2415 19.97 72.3016 22.3949C74.3618 24.8197 75.0123 27.5304 74.7758 30.0538C74.5392 32.5772 73.0508 37.4762 69.7782 39.3885C66.5057 41.3007 63.381 41.695 61.0054 41.695C58.6299 41.695 51.4342 40.315 47.4224 35.6034L52.2326 28.8808C52.2326 28.8808 55.7812 33.5038 61.3406 33.5038C66.9 33.5038 66.3381 30.2312 66.3381 29.7187C66.3381 29.2061 64.9088 26.2588 60.6999 24.7704C56.4909 23.282 50.2809 19.3983 49.5811 17.4368C48.8812 15.4752 48.6447 14.0755 48.6447 11.6507C48.6249 9.42297 50.9118 0.186889 61.794 0.186889C67.9054 -0.246822 74.2632 5.12528 74.2632 5.12528H74.2533Z" fill="black"/>
<path d="M120 1.15288H111.05V40.9755H120V1.15288Z" fill="black"/>
<path d="M101.804 19.7433C103.391 18.1563 105.589 16.1948 105.589 11.1085C105.589 6.02228 100.453 1.16274 96.2543 1.16274H78.5609V40.9853H96.2543C98.2159 40.9853 107.038 38.2746 107.038 29.6398C107.038 21.005 101.814 19.7433 101.814 19.7433H101.804ZM95.4362 33.4348H86.8704V8.4274H94.2632C95.3968 8.4274 97.3386 9.96511 97.3386 12.5082C97.3386 15.0514 95.6037 16.6285 94.7955 16.6285H90.8724V23.903H94.9138C97.6245 23.903 98.7087 27.3333 98.7087 29.0385C98.7087 30.7438 96.688 33.4447 95.4362 33.4447V33.4348Z" fill="black"/>
<path d="M20.9069 0.147461C9.36422 0.147461 0 9.51168 0 21.0543C0 31.8774 8.23066 40.7882 18.7777 41.8527V26.7714C16.4613 25.904 14.8152 23.6763 14.8152 21.0642C14.8152 17.6931 17.5456 14.9528 20.9266 14.9528C24.3075 14.9528 27.038 17.6832 27.038 21.0642C27.038 23.6763 25.3918 25.904 23.0754 26.7714V41.8527C33.6028 40.7685 41.8236 31.8774 41.8236 21.0543C41.8137 9.51168 32.4495 0.147461 20.9069 0.147461Z" fill="black"/>
</g>
</g>
</svg>
