<svg viewBox="0 0 160 58" fill="none" xmlns="http://www.w3.org/2000/svg">
<g id="Jumbo Logo">
<g id="Vector">
<path d="M41.1394 28.8905V23.8602L36.9576 28.8905L32.7394 23.8602V28.8905H28.9455V14.1996L36.9455 23.6783L44.9091 14.1996V28.8905H41.1152H41.1394Z" fill="black"/>
<path d="M26.4121 22.7814C26.4121 26.7692 23.9758 29.1208 19.9515 29.1208C15.9273 29.1208 13.4545 26.7571 13.4545 22.7814V14.5026H17.2485V22.7329C17.2485 24.7086 18.1333 25.8238 19.9515 25.8238C21.7697 25.8238 22.6545 24.6965 22.6545 22.7329V14.5026H26.4V22.7814H26.4121Z" fill="black"/>
<path d="M54.1333 14.5026C56.8364 14.5026 58.8121 15.7753 58.8121 18.5996C58.8121 19.8359 58.2303 20.6844 57.6121 21.3026C58.5455 21.7632 59.3939 22.8905 59.3939 24.5874C59.3939 27.3753 57.4545 28.9147 54.5212 28.9147H47.6V14.4905H54.1333V14.5026ZM51.3818 19.9571H53.6606C54.4727 19.9571 54.9697 19.642 54.9697 18.8783C54.9697 18.1147 54.4727 17.7996 53.697 17.7996H51.3818V19.9692V19.9571ZM54.0485 25.6056C54.9818 25.6056 55.5152 25.2177 55.5152 24.3692C55.5152 23.5208 54.9697 23.1329 54.0121 23.1329H51.3455V25.6056H54.0485Z" fill="black"/>
<path d="M76.5212 21.6905C76.5212 26.2117 73.2727 29.1086 68.7879 29.1086C64.303 29.1086 61.0182 26.2117 61.0182 21.6905C61.0182 17.1692 64.2667 14.2723 68.7879 14.2723C73.3091 14.2723 76.5212 17.2056 76.5212 21.6905ZM64.8848 21.6905C64.8848 24.248 66.3879 25.8238 68.7879 25.8238C71.1879 25.8238 72.6545 24.2723 72.6545 21.6905C72.6545 19.1086 71.1515 17.5571 68.7879 17.5571C66.4242 17.5571 64.8848 19.145 64.8848 21.6905Z" fill="black"/>
<path d="M7.15152 23.545C7.15152 25.048 6.5697 25.8238 5.45455 25.8238C4.5697 25.8238 4.02424 25.1693 3.8303 24.042H0C0.230303 27.2905 2.27879 29.1086 5.41818 29.1086C8.89697 29.1086 10.9455 26.9874 10.9455 23.4238V14.4905H7.15152V23.545Z" fill="black"/>
<path d="M109.77 14.5753C109.927 23.242 112.703 27.0238 120.4 27.0238C128.097 27.0238 130.921 23.2299 131.067 14.5753L131.333 1.77531L109.455 1.70258L109.77 14.5753Z" fill="black"/>
<path d="M160 3.98137L147.164 10.9753L133.552 2.62379L133.588 28.2238L159.224 28.648L160 3.98137Z" fill="black"/>
<path d="M127.952 40.9874C129.891 39.8238 130.812 37.8602 130.812 35.4965C130.776 31.7026 128.448 29.0359 121.297 29.0723L110.509 29.1935L111.709 57.3389L122.376 57.2177C129.952 57.145 133.588 53.9692 133.515 48.8662C133.515 45.1935 131.503 42.2965 127.952 40.9753V40.9874Z" fill="black"/>
<path d="M146.424 54.5632C154.158 54.5632 158.097 49.1086 158.097 42.5753C158.097 36.042 153.648 30.4783 146.424 30.4299C139.188 30.3571 134.752 35.9935 134.752 42.5753C134.752 49.1571 138.691 54.5632 146.424 54.5632Z" fill="black"/>
<path d="M90.2061 5.92076C87.0788 8.81773 84.7879 13.9208 84.7879 21.5814C84.7879 25.5692 85.4424 32.248 85.4424 35.2662C85.4424 40.1389 83.5515 41.7268 80.9939 41.7268C78.2545 41.7268 76.4364 39.8723 76.2424 35.4965H69.6727C69.2485 45.5935 76.6667 50.9632 86.5697 50.9632C96.4727 50.9632 107.333 44.9268 107.333 28.9632V0.660156C101.224 0.660156 94.2303 2.24804 90.2061 5.92076ZM90.9818 26.9147C89.3212 27.3753 87.5758 26.3692 87.1152 24.7086C86.6909 23.048 87.6606 21.3026 89.3212 20.842C90.9818 20.3814 92.7273 21.3874 93.1879 23.048C93.6485 24.7086 92.6424 26.4541 90.9818 26.9147Z" fill="black"/>
<path d="M88.3879 22.8905C89.0788 22.6965 89.8182 23.1208 90.0121 23.8238C90.2061 24.5147 89.7818 25.2541 89.0788 25.448C88.3879 25.642 87.6485 25.2177 87.4546 24.5147C87.2606 23.8238 87.6848 23.0844 88.3879 22.8905Z" fill="black"/>
</g>
</g>
</svg>
