<svg viewBox="0 0 170 46" fill="none" xmlns="http://www.w3.org/2000/svg">
<g id="Our Property Logo">
<g id="Logo_OurProperty">
<path d="M138.465 25.2912C138.159 25.2912 137.955 25.0447 137.955 24.7812C137.955 24.5177 138.159 24.2712 138.465 24.2712C138.771 24.2712 138.975 24.5177 138.975 24.7812C138.975 25.0447 138.771 25.2912 138.465 25.2912Z" fill="black"/>
<path d="M159.273 25.2912C158.967 25.2912 158.763 25.0447 158.763 24.7812C158.763 24.5177 158.967 24.2712 159.273 24.2712C159.579 24.2712 159.783 24.5177 159.783 24.7812C159.783 25.0447 159.579 25.2912 159.273 25.2912Z" fill="black"/>
<path d="M47.8044 13.2468C51.4509 13.2468 54.1114 15.6438 54.1114 19.3923C54.1114 23.1407 51.4509 25.5377 47.8044 25.5377C44.1579 25.5377 41.4974 23.1407 41.4974 19.3923C41.4974 15.6438 44.1579 13.2468 47.8044 13.2468ZM47.8044 23.1577C49.9974 23.1577 51.4339 21.5683 51.4339 19.3923C51.4339 17.2163 49.9974 15.6268 47.8044 15.6268C45.6114 15.6268 44.1749 17.2078 44.1749 19.3923C44.1749 21.5768 45.6114 23.1577 47.8044 23.1577Z" fill="black"/>
<path d="M63.2743 25.2317H60.8943V24.1437H60.8603C60.5288 24.7727 59.7213 25.4357 58.5144 25.4357C56.0069 25.4357 55.5394 23.7867 55.5394 21.6363V17.2078H58.0129V21.1348C58.0129 22.0613 58.0299 23.2512 59.3049 23.2512C60.5798 23.2512 60.7923 22.2398 60.7923 21.2028V17.2078H63.2658V25.2317H63.2743Z" fill="black"/>
<path d="M65.0253 17.2078H67.4988V18.4998H67.5328C68.0598 17.5223 68.7568 17.0123 69.8448 17.0123C70.1253 17.0123 70.4398 17.0293 70.6693 17.0973V19.3583C70.3208 19.2563 69.9723 19.1968 69.6153 19.1968C67.7368 19.1968 67.4988 20.2848 67.4988 21.8913V25.2402H65.0253V17.2078Z" fill="black"/>
<path d="M72.0633 13.5443H76.4068C78.8378 13.5443 80.8523 14.3178 80.8523 17.0973C80.8523 19.8768 78.9908 20.6843 76.5258 20.6843H74.6473V25.2402H72.0718V13.5528L72.0633 13.5443ZM74.6388 18.4998H76.3558C77.2653 18.4998 78.1748 18.1853 78.1748 17.0973C78.1748 15.8903 76.9508 15.7288 75.9648 15.7288H74.6473V18.4998H74.6388Z" fill="black"/>
<path d="M82.1528 17.2078H84.6263V18.4998H84.6603C85.1873 17.5223 85.8843 17.0123 86.9723 17.0123C87.2528 17.0123 87.5673 17.0293 87.7968 17.0973V19.3583C87.4483 19.2563 87.0998 19.1968 86.7428 19.1968C84.8643 19.1968 84.6263 20.2848 84.6263 21.8913V25.2402H82.1528V17.2078Z" fill="black"/>
<path d="M93.0582 17.0123C95.5317 17.0123 97.5122 18.6613 97.5122 21.2198C97.5122 23.7782 95.5317 25.4272 93.0582 25.4272C90.5848 25.4272 88.6043 23.7782 88.6043 21.2198C88.6043 18.6613 90.5848 17.0123 93.0582 17.0123ZM93.0582 23.2512C94.2992 23.2512 95.0387 22.4268 95.0387 21.2198C95.0387 20.0128 94.2992 19.1883 93.0582 19.1883C91.8172 19.1883 91.0778 20.0128 91.0778 21.2198C91.0778 22.4268 91.8172 23.2512 93.0582 23.2512Z" fill="black"/>
<path d="M98.7107 17.2078H100.989V18.2618H101.023C101.405 17.6838 102.357 17.0038 103.488 17.0038C105.868 17.0038 107.432 18.7208 107.432 21.1518C107.432 23.3787 106.046 25.4272 103.768 25.4272C102.748 25.4272 101.788 25.1467 101.227 24.3732H101.193V28.9972H98.7192V17.2078H98.7107ZM102.969 23.2512C104.21 23.2512 104.95 22.4268 104.95 21.2198C104.95 20.0128 104.21 19.1883 102.969 19.1883C101.728 19.1883 100.989 20.0128 100.989 21.2198C100.989 22.4268 101.728 23.2512 102.969 23.2512Z" fill="black"/>
<path d="M116.476 23.8462C115.685 24.8492 114.376 25.4272 113.093 25.4272C110.619 25.4272 108.639 23.7782 108.639 21.2198C108.639 18.6613 110.619 17.0123 113.093 17.0123C115.405 17.0123 116.858 18.6613 116.858 21.2198V21.9933H111.112C111.308 22.9367 112.022 23.5487 112.974 23.5487C113.781 23.5487 114.325 23.1322 114.742 22.5713L116.476 23.8462ZM114.385 20.3103C114.402 19.4858 113.756 18.7888 112.863 18.7888C111.775 18.7888 111.18 19.5283 111.112 20.3103H114.385Z" fill="black"/>
<path d="M143.676 21.8573C143.472 21.5343 143.064 21.2708 142.571 21.2708C141.542 21.2538 140.913 22.0188 140.913 23.0302C140.913 24.0417 141.542 24.8067 142.571 24.7897C143.064 24.7897 143.463 24.5262 143.676 24.2032L144.186 24.5857C143.752 25.0957 143.166 25.3422 142.571 25.3507C141.126 25.3677 140.233 24.3562 140.233 23.0302C140.233 21.7043 141.134 20.6928 142.571 20.7098C143.166 20.7183 143.752 20.9648 144.186 21.4748L143.676 21.8573Z" fill="black"/>
<path d="M147.118 25.3507C145.75 25.3507 144.781 24.3647 144.781 23.0302C144.781 21.6958 145.75 20.7098 147.118 20.7098C148.487 20.7098 149.464 21.7043 149.464 23.0302C149.464 24.3562 148.495 25.3507 147.118 25.3507ZM147.118 21.2708C146.098 21.2708 145.461 22.0358 145.461 23.0302C145.461 24.0247 146.098 24.7897 147.118 24.7897C148.138 24.7897 148.784 24.0247 148.784 23.0302C148.784 22.0358 148.147 21.2708 147.118 21.2708Z" fill="black"/>
<path d="M150.595 21.7978C150.595 21.4663 150.569 21.1433 150.544 20.8203H151.215V21.4918H151.232C151.538 20.9818 152.133 20.7098 152.66 20.7098C153.145 20.7098 153.774 20.8713 154.063 21.6278C154.318 21.0583 154.921 20.7098 155.516 20.7098C156.638 20.7098 157.174 21.3388 157.174 22.4353V25.2402H156.553V22.6647C156.553 21.7638 156.298 21.2793 155.44 21.2793C154.513 21.2793 154.199 22.0698 154.199 22.8942V25.2402H153.578V22.6647C153.578 21.7638 153.323 21.2793 152.465 21.2793C152.312 21.2793 151.224 21.3643 151.224 22.9792V25.2402H150.603V21.8063L150.595 21.7978Z" fill="black"/>
<path d="M164.093 22.5287V22.4183C164.093 21.6533 163.727 21.2793 162.962 21.2793C162.444 21.2793 161.993 21.4578 161.611 21.7978L161.237 21.3558C161.645 20.9393 162.274 20.7183 163.107 20.7183C163.94 20.7183 164.722 21.2113 164.722 22.2823V24.2542C164.722 24.5942 164.756 25.0107 164.798 25.2402H164.195C164.161 25.0192 164.135 24.7557 164.135 24.5262H164.118C163.761 25.1127 163.268 25.3592 162.563 25.3592C161.781 25.3592 161.041 24.9257 161.041 24.0672C161.041 22.6307 162.733 22.5373 163.787 22.5373H164.101L164.093 22.5287ZM163.77 23.0387C163.141 23.0387 161.713 23.0897 161.713 23.9737C161.713 24.5602 162.248 24.7812 162.75 24.7812C163.659 24.7812 164.093 24.1437 164.093 23.3532V23.0302H163.77V23.0387Z" fill="black"/>
<path d="M169.346 25.2317C169.32 24.9937 169.32 24.7557 169.32 24.5262H169.303C169.031 25.0107 168.402 25.3507 167.824 25.3507C166.702 25.3507 166.167 24.7217 166.167 23.6252V20.8203H166.787V23.2682C166.787 24.2457 167.059 24.7897 167.986 24.7897C168.113 24.7897 169.329 24.7047 169.329 23.0897V20.8203H169.949V24.2627C169.949 24.5007 169.975 24.9172 170 25.2317H169.346Z" fill="black"/>
<path d="M129.396 19.1883V17.2078H127.22V14.8278H124.746V17.0038H123.08C122.052 17.0463 121.389 17.5478 120.879 18.4913H120.845V17.1993H118.371V25.2232H120.845V21.8743C120.845 20.3018 121.066 19.2223 122.868 19.1798H124.746V22.9963C124.746 24.7472 126.021 25.4272 127.67 25.4272C128.248 25.4272 128.86 25.3762 129.404 25.1807V23.1152C129.192 23.3107 128.665 23.3447 128.401 23.3447C127.33 23.3447 127.228 22.7157 127.228 21.8573V19.1798H129.404L129.396 19.1883Z" fill="black"/>
<path d="M136.366 17.2078L134.598 22.5117H134.564L132.498 17.2078H129.821L133.34 25.2997L133.161 25.7587C132.813 26.6342 132.634 27.1102 131.512 27.1102C131.223 27.1102 130.96 27.0677 130.688 26.9827V29.0652C131.079 29.1417 131.478 29.1927 131.869 29.1927C134.232 29.1927 134.615 28.2322 135.269 26.5322L138.899 17.1993H136.357L136.366 17.2078Z" fill="black"/>
<path d="M25.0075 24.0927C24.7355 25.5972 23.2905 26.5917 21.7945 26.3112C20.29 26.0392 19.2955 24.5942 19.576 23.0982C19.848 21.5938 21.2845 20.5993 22.789 20.8713C24.2935 21.1433 25.288 22.5882 25.0075 24.0842" fill="black"/>
<path d="M35.0884 34.5562C33.9239 34.3437 32.7254 34.4967 31.6374 35.0067L31.4929 35.0747L27.022 29.0227L27.1325 28.9207C28.3139 27.8582 29.0874 26.4642 29.3764 24.8832C29.8354 22.3758 28.8919 19.7748 26.9115 18.0918L26.8435 18.0323L32.8104 11.6403C33.6179 12.1163 34.5359 12.3713 35.4709 12.3713C38.3609 12.3713 40.7069 10.0253 40.7069 7.1353C40.7069 4.24531 38.3609 1.89931 35.4709 1.89931C32.5809 1.89931 30.2349 4.24531 30.2349 7.1353C30.2349 8.43579 30.7109 9.66829 31.5779 10.6373L25.492 17.1568L25.2965 17.0633C24.744 16.7998 24.1745 16.6128 23.588 16.5023C22.976 16.3918 22.313 16.3663 21.565 16.4343H21.446L18.4115 8.08729L18.556 8.0023C19.6185 7.3648 20.3495 6.3108 20.5705 5.1208C20.7745 4.00731 20.528 2.87681 19.882 1.94181C19.236 1.00682 18.267 0.377819 17.1535 0.173819C14.85 -0.242679 12.6315 1.28732 12.215 3.59081C12.011 4.70431 12.2575 5.8348 12.9035 6.7698C13.5495 7.7048 14.5185 8.33379 15.632 8.53779C16.006 8.60579 16.3715 8.62279 16.7455 8.58879H16.8645L19.8735 16.8083L19.6865 16.8848C18.726 17.2673 17.842 17.8623 17.1195 18.6103L17.026 18.7038L9.13801 14.6748L9.19751 14.5218C9.30801 14.2328 9.38451 13.9608 9.43551 13.7143C9.66501 12.4733 9.39301 11.2068 8.67051 10.1698C7.94801 9.12429 6.86852 8.42729 5.61902 8.19779C4.36952 7.96829 3.10303 8.24879 2.05753 8.97129C1.01203 9.70229 0.306535 10.7903 0.0770361 12.0398C-0.390462 14.6153 1.31803 17.0888 3.89352 17.5563C5.45752 17.8453 7.05551 17.3183 8.16901 16.1708L8.26251 16.0773L16.057 20.0383L15.972 20.1998C15.598 20.8798 15.343 21.5938 15.2155 22.3078C14.9265 23.8972 15.173 25.4952 15.9295 26.9317L15.9975 27.0677L8.39851 33.8507L8.28801 33.7402C7.66751 33.1112 6.88551 32.6862 6.01852 32.5332C4.90502 32.3292 3.77452 32.5757 2.83953 33.2217C1.90453 33.8677 1.27553 34.8367 1.07153 35.9502C0.655034 38.2537 2.18503 40.4722 4.48852 40.8887C5.60202 41.0927 6.73252 40.8462 7.66751 40.2002C8.60251 39.5542 9.23151 38.5852 9.43551 37.4717C9.55451 36.8002 9.50351 36.0777 9.28251 35.3722L9.24001 35.2532L16.924 28.4022L17.0345 28.5212C18.08 29.6517 19.4485 30.3997 20.9955 30.6802C22.5595 30.9692 24.132 30.7312 25.543 30.0002L25.6875 29.9237L30.1754 35.9842L30.0734 36.0862C29.2149 36.9277 28.6454 37.9902 28.4329 39.1547C28.161 40.6592 28.4839 42.1722 29.3594 43.4302C30.2264 44.6882 31.5354 45.5297 33.0314 45.8017C33.3799 45.8612 33.7199 45.8952 34.0684 45.8952C35.2159 45.8952 36.3379 45.5467 37.3069 44.8752C38.5649 44.0082 39.4064 42.6992 39.6784 41.2032C39.9504 39.6987 39.6274 38.1857 38.7519 36.9277C37.8849 35.6697 36.5759 34.8282 35.0799 34.5562M18.9555 4.8488C18.692 6.2853 17.315 7.2373 15.887 6.9738C15.1815 6.8463 14.5695 6.4553 14.1785 5.8858C13.779 5.3163 13.6345 4.61081 13.762 3.90531C13.8895 3.21681 14.2805 2.61331 14.8585 2.20531C15.4365 1.80581 16.142 1.65281 16.8305 1.78031C17.519 1.90781 18.1225 2.29881 18.5305 2.87681C18.93 3.45481 19.083 4.16031 18.9555 4.8488ZM31.8924 6.5063C32.2154 4.73831 33.7029 3.53981 35.4199 3.53981C35.6409 3.53981 35.8704 3.55681 36.0999 3.59931C37.0689 3.77781 37.8934 4.30481 38.4374 5.0868C38.9814 5.8688 39.1854 6.8378 39.0069 7.7983C38.6414 9.79579 36.7969 11.0708 34.7994 10.7053C32.8019 10.3398 31.5269 8.49529 31.8924 6.4978M23.299 18.0918C26.3335 18.6443 28.3564 21.5683 27.804 24.6027C27.2515 27.6372 24.3275 29.6602 21.293 29.1077C18.2585 28.5552 16.2355 25.6312 16.788 22.5968C17.3405 19.5623 20.2645 17.5393 23.299 18.0918ZM38.0889 40.9227C37.8934 42.0022 37.2899 42.9372 36.3804 43.5662C35.4709 44.1952 34.3829 44.4247 33.3034 44.2292C32.2239 44.0337 31.2889 43.4302 30.6599 42.5207C30.0309 41.6197 29.8014 40.5232 29.9969 39.4437C30.3624 37.4632 32.0964 36.0692 34.0429 36.0692C34.2894 36.0692 34.5359 36.0947 34.7824 36.1372C37.0094 36.5452 38.4969 38.6872 38.0889 40.9227ZM7.82051 13.4678C7.50601 15.2018 5.89952 16.3068 4.17402 15.9923C2.44853 15.6608 1.34353 14.0543 1.64953 12.3458C1.80253 11.5043 2.26153 10.7818 2.94153 10.3143C3.46003 9.95729 4.07202 9.77029 4.70952 9.77029C4.90502 9.77029 5.10052 9.78729 5.29602 9.82129C7.03001 10.1358 8.13501 11.7423 7.82051 13.4678ZM7.83751 37.1742C7.57401 38.6107 6.19702 39.5627 4.76902 39.2992C3.34103 39.0357 2.38903 37.6587 2.64403 36.2307C2.77153 35.5422 3.16253 34.9387 3.74052 34.5307C4.19102 34.2247 4.70952 34.0632 5.23652 34.0632C5.39802 34.0632 5.55102 34.0802 5.71252 34.1057C7.14901 34.3692 8.10101 35.7462 7.83751 37.1742Z" fill="black"/>
<path d="M94.4777 35.5677C94.4777 37.1232 95.5572 38.2452 97.1127 38.2452C98.6682 38.2452 99.7477 37.1232 99.7477 35.5677C99.7477 34.0122 98.6682 32.8902 97.1127 32.8902C95.5572 32.8902 94.4777 34.0122 94.4777 35.5677ZM94.9452 35.5677C94.9452 34.3012 95.7697 33.3237 97.1042 33.3237C98.4387 33.3237 99.2632 34.3012 99.2632 35.5677C99.2632 36.8342 98.4387 37.8117 97.1042 37.8117C95.7697 37.8117 94.9452 36.8342 94.9452 35.5677ZM100.691 38.1177H101.125V36.4517C101.125 35.5337 101.635 35.0917 102.281 35.0917C102.969 35.0917 103.114 35.6187 103.114 36.1542V38.1092H103.547V36.1287C103.547 35.3977 103.318 34.6922 102.281 34.6922C101.737 34.6922 101.312 34.9982 101.142 35.3637H101.116C101.099 35.2957 101.091 35.0237 101.091 34.7772H100.657C100.657 34.9472 100.691 35.4657 100.691 35.7122V38.1177ZM107.313 37.2252C107.1 37.5822 106.633 37.8202 106.199 37.8202C105.188 37.8202 104.941 36.9277 104.941 36.5707H107.738V36.2647C107.738 35.4912 107.194 34.7092 106.174 34.7092C105.154 34.7092 104.508 35.4572 104.508 36.4517C104.508 37.4462 105.179 38.2112 106.191 38.2112C106.786 38.2112 107.296 37.9987 107.627 37.4972L107.313 37.2337V37.2252ZM104.941 36.1712C104.941 36.0012 105.205 35.0917 106.148 35.0917C106.786 35.0917 107.304 35.5847 107.304 36.1712H104.941ZM110.696 38.1177H111.172V33.0177H110.696V38.1177ZM112.447 38.1177H112.88V36.4517C112.88 35.5337 113.39 35.0917 114.036 35.0917C114.725 35.0917 114.869 35.6187 114.869 36.1542V38.1092H115.303V36.1287C115.303 35.3977 115.073 34.6922 114.036 34.6922C113.492 34.6922 113.067 34.9982 112.897 35.3637H112.872C112.855 35.2957 112.846 35.0237 112.846 34.7772H112.413C112.413 34.9472 112.447 35.4657 112.447 35.7122V38.1177ZM118.074 34.7857H117.122V33.8252H116.688V34.7857H115.966V35.1767H116.688V37.3442C116.688 37.8202 116.926 38.2027 117.547 38.2027C117.708 38.2027 117.946 38.1432 118.108 38.0837L118.074 37.6927C117.921 37.7607 117.751 37.8117 117.581 37.8117C117.292 37.8117 117.122 37.6417 117.122 37.3442V35.1767H118.074V34.7857ZM121.465 37.2252C121.253 37.5822 120.785 37.8202 120.352 37.8202C119.34 37.8202 119.094 36.9277 119.094 36.5707H121.89V36.2647C121.89 35.4912 121.346 34.7092 120.326 34.7092C119.306 34.7092 118.66 35.4572 118.66 36.4517C118.66 37.4462 119.332 38.2112 120.343 38.2112C120.93 38.2112 121.448 37.9987 121.78 37.4972L121.465 37.2337V37.2252ZM119.094 36.1712C119.094 36.0012 119.357 35.0917 120.301 35.0917C120.938 35.0917 121.457 35.5847 121.457 36.1712H119.094ZM122.919 38.1177H123.352V32.6692H122.919V38.1177ZM124.653 38.1177H125.086V32.6692H124.653V38.1177ZM126.378 38.1177H126.812V34.7942H126.378V38.1177ZM126.268 33.4682C126.268 33.6467 126.412 33.7912 126.591 33.7912C126.769 33.7912 126.914 33.6467 126.914 33.4682C126.914 33.2897 126.769 33.1452 126.591 33.1452C126.412 33.1452 126.268 33.2897 126.268 33.4682ZM131.376 34.7857H130.943V35.3467H130.926C130.671 34.9472 130.237 34.7007 129.668 34.7007C128.69 34.7007 127.891 35.4742 127.891 36.4092C127.891 37.3442 128.69 38.1177 129.668 38.1177C130.237 38.1177 130.679 37.8627 130.926 37.4717H130.943V37.9307C130.943 38.3047 130.917 39.4607 129.6 39.4607C129.081 39.4607 128.588 39.2567 128.291 38.8317L127.951 39.1462C128.291 39.5882 128.928 39.8432 129.6 39.8432C130.271 39.8432 131.368 39.5542 131.368 37.8967V34.7857H131.376ZM130.96 36.4092C130.96 37.1402 130.365 37.7267 129.642 37.7267C128.92 37.7267 128.325 37.1317 128.325 36.4092C128.325 35.6867 128.92 35.0917 129.642 35.0917C130.365 35.0917 130.96 35.6867 130.96 36.4092ZM135.057 37.2252C134.844 37.5822 134.377 37.8202 133.943 37.8202C132.932 37.8202 132.685 36.9277 132.685 36.5707H135.482V36.2647C135.482 35.4912 134.938 34.7092 133.918 34.7092C132.898 34.7092 132.252 35.4572 132.252 36.4517C132.252 37.4462 132.923 38.2112 133.935 38.2112C134.521 38.2112 135.04 37.9987 135.371 37.4972L135.057 37.2337V37.2252ZM132.685 36.1712C132.685 36.0012 132.949 35.0917 133.892 35.0917C134.53 35.0917 135.048 35.5847 135.048 36.1712H132.685ZM136.442 38.1177H136.876V36.4517C136.876 35.5337 137.386 35.0917 138.032 35.0917C138.72 35.0917 138.865 35.6187 138.865 36.1542V38.1092H139.298V36.1287C139.298 35.3977 139.069 34.6922 138.032 34.6922C137.488 34.6922 137.063 34.9982 136.893 35.3637H136.867C136.85 35.2957 136.842 35.0237 136.842 34.7772H136.408C136.408 34.9472 136.442 35.4657 136.442 35.7122V38.1177ZM142.069 34.7857H141.117V33.8252H140.684V34.7857H139.961V35.1767H140.684V37.3442C140.684 37.8202 140.922 38.2027 141.542 38.2027C141.704 38.2027 141.942 38.1432 142.103 38.0837L142.069 37.6927C141.916 37.7607 141.746 37.8117 141.576 37.8117C141.287 37.8117 141.117 37.6417 141.117 37.3442V35.1767H142.069V34.7857ZM144.517 37.4717C144.917 38.0242 145.503 38.2452 146.175 38.2452C147.008 38.2452 147.756 37.7352 147.756 36.8087C147.756 34.8962 145.129 35.8142 145.129 34.2842C145.129 33.6382 145.665 33.3152 146.277 33.3152C146.719 33.3152 147.033 33.4852 147.271 33.8167L147.679 33.5192C147.331 33.0687 146.846 32.8817 146.285 32.8817C145.427 32.8817 144.653 33.3747 144.653 34.2757C144.653 36.2137 147.28 35.3807 147.28 36.8002C147.28 37.4122 146.778 37.8032 146.132 37.8032C145.631 37.8032 145.223 37.5822 144.968 37.1657L144.517 37.4717ZM148.529 36.4517C148.529 37.4632 149.26 38.2027 150.28 38.2027C151.3 38.2027 152.031 37.4717 152.031 36.4517C152.031 35.4317 151.3 34.7007 150.28 34.7007C149.26 34.7007 148.529 35.4317 148.529 36.4517ZM148.963 36.4517C148.963 35.7037 149.464 35.0917 150.28 35.0917C151.096 35.0917 151.598 35.7037 151.598 36.4517C151.598 37.1997 151.096 37.8117 150.28 37.8117C149.464 37.8117 148.963 37.1997 148.963 36.4517ZM153.068 38.1177H153.502V32.6692H153.068V38.1177ZM157.539 34.7857H157.106V36.4517C157.106 37.3612 156.596 37.8117 155.95 37.8117C155.27 37.8117 155.117 37.2847 155.117 36.7492V34.7942H154.683V36.7747C154.683 37.5057 154.913 38.2112 155.95 38.2112C156.494 38.2112 156.919 37.9052 157.089 37.5397H157.114C157.131 37.6077 157.14 37.8797 157.14 38.1262H157.573C157.573 37.9562 157.539 37.4377 157.539 37.1912V34.7857ZM160.361 34.7857H159.409V33.8252H158.976V34.7857H158.253V35.1767H158.976V37.3442C158.976 37.8202 159.214 38.2027 159.834 38.2027C160.004 38.2027 160.234 38.1432 160.395 38.0837L160.361 37.6927C160.208 37.7607 160.038 37.8117 159.868 37.8117C159.579 37.8117 159.409 37.6417 159.409 37.3442V35.1767H160.361V34.7857ZM161.203 38.1177H161.636V34.7942H161.203V38.1177ZM161.092 33.4682C161.092 33.6467 161.237 33.7912 161.415 33.7912C161.594 33.7912 161.738 33.6467 161.738 33.4682C161.738 33.2897 161.594 33.1452 161.415 33.1452C161.237 33.1452 161.092 33.2897 161.092 33.4682ZM162.673 36.4517C162.673 37.4632 163.404 38.2027 164.424 38.2027C165.444 38.2027 166.175 37.4717 166.175 36.4517C166.175 35.4317 165.444 34.7007 164.424 34.7007C163.404 34.7007 162.673 35.4317 162.673 36.4517ZM163.107 36.4517C163.107 35.7037 163.608 35.0917 164.424 35.0917C165.24 35.0917 165.742 35.7037 165.742 36.4517C165.742 37.1997 165.24 37.8117 164.424 37.8117C163.608 37.8117 163.107 37.1997 163.107 36.4517ZM167.136 38.1177H167.569V36.4517C167.569 35.5337 168.079 35.0917 168.725 35.0917C169.413 35.0917 169.558 35.6187 169.558 36.1542V38.1092H169.992V36.1287C169.992 35.3977 169.762 34.6922 168.725 34.6922C168.181 34.6922 167.756 34.9982 167.586 35.3637H167.561C167.544 35.2957 167.535 35.0237 167.535 34.7772H167.102C167.102 34.9472 167.136 35.4657 167.136 35.7122V38.1177Z" fill="black"/>
</g>
</g>
</svg>
