<svg xmlns="http://www.w3.org/2000/svg" version="1.1" viewBox="0 0 100 34">
  <defs>
    <style>
      .cls-1 {
        fill: #7b7f85;
      }
    </style>
  </defs>
  <!-- Generator: Adobe Illustrator 28.6.0, SVG Export Plug-In . SVG Version: 1.2.0 Build 709)  -->
  <g>
    <g id="Layer_1">
      <path d="M14.9,20.1c0-2.7-1.4-3.6-3.6-3.6s-3.5,1.1-4.3,2.1v14.2H0V10.8h7v1.9l-.9,1.6c1.3-1.5,4.8-4.1,8.5-4.1s7.3,2.9,7.3,7v15.6h-7v-12.7h0Z"/>
      <path d="M38.9,29.5c-1.4,1.5-4.6,3.8-8.3,3.8s-7.2-2.8-7.2-6.9v-15.7h7v12.8c0,2.6,1.4,3.6,3.6,3.6s3.4-1.1,4.2-2.1v-14.2h7v22h-7v-1.6l.7-1.6h0Z"/>
      <path d="M79.8,10.2c6.5,0,11.2,4.8,11.2,12.2v1.5h-15.1l-.6-.8c0,.3,0,.6.1,1,.5,2,2.4,3.7,5.6,3.7s4.1-.8,5.4-1.9l3,4.4c-2.2,2-5.8,2.9-9.2,2.9-6.8,0-12-4.4-12-11.6s4.8-11.5,11.7-11.5h0ZM75.3,19.4h9.1c-.2-1.5-1.3-3.8-4.5-3.8s-4.2,2.2-4.5,3.8h0Z"/>
      <path d="M92.5,10.8h7v22h-7V10.8Z"/>
      <path d="M62.5,10.8l-4.7,13.1.2,2-5.4-15.1h-6v3.6l7.2,18.4h7.5l8.6-22h-7.4Z"/>
      <path class="cls-1" d="M92,4C92,1.8,93.8,0,96,0s4,1.8,4,4-1.8,4-4,4-4-1.8-4-4Z"/>
    </g>
  </g>
</svg>