<svg id="a" data-name="Layer_1" xmlns="http://www.w3.org/2000/svg" viewBox="0 0 116.5 90.34">
  <path d="M21.19,90.1v-6c0-2.26-1.44-3.78-3.76-3.8-1.22-.02-2.48.36-3.36,1.7-.66-1.06-1.7-1.7-3.16-1.7-1.02,0-2.02.3-2.8,1.42v-1.18h-2.08v9.56h2.1v-5.3c0-1.66.92-2.54,2.34-2.54s2.08.9,2.08,2.52v5.32h2.1v-5.3c0-1.66.96-2.54,2.34-2.54s2.1.9,2.1,2.52v5.32h2.1ZM52.27,80.54h-3.4v-2.9h-2.1v2.9h-1.94v1.9h1.94v4.36c0,2.22.86,3.54,3.32,3.54.9,0,1.94-.28,2.6-.74l-.6-1.78c-.62.36-1.3.54-1.84.54-1.04,0-1.38-.64-1.38-1.6v-4.32h3.4v-1.9ZM70.01,80.3c-1.2,0-1.98.56-2.52,1.4v-1.16h-2.06v9.56h2.08v-5.36c0-1.58.68-2.46,2.04-2.46.42,0,.86.06,1.3.24l.64-1.96c-.46-.18-1.06-.26-1.48-.26h0ZM43.19,81.3c-1-.66-2.38-1-3.9-1-2.42,0-3.98,1.16-3.98,3.06,0,1.56,1.16,2.52,3.3,2.82l.98.14c1.14.16,1.68.46,1.68,1,0,.74-.76,1.16-2.18,1.16s-2.48-.46-3.18-1l-.98,1.62c1.14.84,2.58,1.24,4.14,1.24,2.76,0,4.36-1.3,4.36-3.12,0-1.68-1.26-2.56-3.34-2.86l-.98-.14c-.9-.12-1.62-.3-1.62-.94,0-.7.68-1.12,1.82-1.12,1.22,0,2.4.46,2.98.82l.9-1.68ZM98.9,80.3c-1.2,0-1.98.56-2.52,1.4v-1.16h-2.06v9.56h2.08v-5.36c0-1.58.68-2.46,2.04-2.46.42,0,.86.06,1.3.24l.64-1.96c-.46-.18-1.06-.26-1.48-.26h0ZM72.11,85.32c0,2.9,2.02,5.02,5.1,5.02,1.44,0,2.4-.32,3.44-1.14l-1-1.68c-.78.56-1.6.86-2.5.86-1.66-.02-2.88-1.22-2.88-3.06s1.22-3.04,2.88-3.06c.9,0,1.72.3,2.5.86l1-1.68c-1.04-.82-2-1.14-3.44-1.14-3.08,0-5.1,2.12-5.1,5.02h0ZM91.58,85.32v-4.78h-2.08v1.16c-.66-.86-1.66-1.4-3.02-1.4-2.68,0-4.78,2.1-4.78,5.02s2.1,5.02,4.78,5.02c1.36,0,2.36-.54,3.02-1.4v1.16h2.08v-4.78ZM83.84,85.32c0-1.68,1.1-3.06,2.9-3.06s2.88,1.32,2.88,3.06-1.16,3.06-2.88,3.06-2.9-1.38-2.9-3.06h0ZM58.75,80.3c-2.8,0-4.76,2.04-4.76,5.02s2.04,5.02,4.9,5.02c1.44,0,2.76-.36,3.92-1.34l-1.02-1.54c-.8.64-1.82,1-2.78,1-1.34,0-2.56-.62-2.86-2.34h7.1c.02-.26.04-.52.04-.8-.02-2.98-1.86-5.02-4.54-5.02h0ZM58.71,82.16c1.34,0,2.2.84,2.42,2.32h-4.96c.22-1.38,1.06-2.32,2.54-2.32h0ZM110.88,85.32v-8.62h-2.08v5c-.66-.86-1.66-1.4-3.02-1.4-2.68,0-4.78,2.1-4.78,5.02s2.1,5.02,4.78,5.02c1.36,0,2.36-.54,3.02-1.4v1.16h2.08v-4.78ZM103.14,85.32c0-1.68,1.1-3.06,2.9-3.06s2.88,1.32,2.88,3.06-1.16,3.06-2.88,3.06-2.9-1.38-2.9-3.06h0ZM32.91,85.32v-4.78h-2.08v1.16c-.66-.86-1.66-1.4-3.02-1.4-2.68,0-4.78,2.1-4.78,5.02s2.1,5.02,4.78,5.02c1.36,0,2.36-.54,3.02-1.4v1.16h2.08v-4.78ZM25.17,85.32c0-1.68,1.1-3.06,2.9-3.06s2.88,1.32,2.88,3.06-1.16,3.06-2.88,3.06-2.9-1.38-2.9-3.06ZM55.06,65.26c.28.24.58.48.87.72-5.71,3.8-12.56,6.02-19.93,6.02C16.12,72,0,55.88,0,36S16.12,0,36,0c7.37,0,14.22,2.22,19.93,6.02-.29.24-.59.47-.87.72-8.48,7.38-13.35,18.05-13.35,29.26s4.86,21.88,13.35,29.26ZM80.5,0C73.13,0,66.28,2.22,60.57,6.02c.29.24.59.47.87.72,8.48,7.38,13.35,18.04,13.35,29.26s-4.86,21.88-13.34,29.26c-.28.24-.58.48-.87.72,5.71,3.8,12.56,6.02,19.93,6.02,19.88,0,36-16.12,36-36S100.38,0,80.5,0ZM58.25,7.71c-.46.36-.92.74-1.36,1.13-7.59,6.6-12.39,16.32-12.39,27.16s4.8,20.56,12.39,27.16c.44.39.9.76,1.36,1.13.46-.37.92-.74,1.36-1.13,7.59-6.6,12.39-16.32,12.39-27.16s-4.8-20.56-12.39-27.16c-.44-.39-.9-.76-1.36-1.13"/>
</svg>