<svg xmlns="http://www.w3.org/2000/svg" version="1.1" viewBox="0 0 599.9 200.3">
  <!-- Generator: Adobe Illustrator 28.6.0, SVG Export Plug-In . SVG Version: 1.2.0 Build 709)  -->
  <g>
    <g id="layer">
      <path d="M356.2,98.8c.4-11.6-4.1-22.8-12.2-31-8.2-8.3-19.6-12.8-31.3-12.4-23-1-42.5,16.9-43.4,40v3.4c-.4,11.6,4,22.8,12,31.2,8.3,8.3,19.7,12.7,31.4,12.2,11.7.5,23-3.9,31.2-12.2,8.3-8.3,12.7-19.5,12.3-31.2ZM341.3,98.8c.5,8.2-2.4,16.3-8.1,22.3-5.5,5.3-12.9,8.1-20.5,7.8-7.7.2-15.1-2.6-20.6-7.8-5.6-6-8.5-14.1-7.9-22.3-.5-8.2,2.3-16.3,7.9-22.3,5.6-5.3,13-8.1,20.6-7.8,7.6-.3,15,2.6,20.5,7.8,5.7,6,8.7,14.1,8.1,22.3ZM233.8,93.2l34.3-36.1h-19.3l-30.9,33.1V23.8h-14.5v116.8h14.6v-31.4l5.4-5.5,30.9,36.8h18.9l-39.4-47.3ZM141.7,77.6c0-6.2,6.9-9.6,14.4-9.6s15.2,4.3,16.8,12.3h14.8c-2-15.9-13.9-24.9-31.6-24.9-7.4-.3-14.8,2.1-20.6,6.7-5,3.8-7.9,9.7-8,15.9,0,12.7,7.8,19.9,24.8,24,17.7,4.5,24.3,7.8,24.3,15s-7.6,11.8-17.1,11.8-17.8-4.4-20.7-12.7h-14.2c2.1,16.5,15.1,26.2,34.7,26.2,8.4.4,16.6-2.3,23-7.7,5.8-4.8,9-12.1,8.8-19.6,0-12.5-8.6-19.1-27.4-24-15.9-4-22-7.3-22-13.4ZM100.7,125.4c11.3-11.2,16.9-25.7,16.9-43.4s-5.6-31.9-16.9-43.1c-11.1-11.1-26.2-17.2-41.9-16.9-15.7-.4-30.8,5.7-41.9,16.9C5.6,50.1,0,64.4,0,82.1s5.6,32.3,16.9,43.4c11.1,11.1,26.2,17.1,41.9,16.7,15.7.4,30.8-5.6,41.9-16.7h0ZM101.1,82c.5,12-3.6,23.8-11.5,32.9-7.9,8.5-19.2,13-30.8,12.5-11.6.5-22.8-4-30.8-12.5-7.8-9.1-12-20.8-11.5-32.8-.5-12,3.6-23.7,11.5-32.7,7.9-8.6,19.1-13.3,30.8-12.7,11.6-.5,22.9,4.1,30.8,12.7,7.9,9,12,20.8,11.5,32.6h0ZM207.4,181.3h4.8c2.5,0,3.9-.9,3.9-2.8s-1.3-2.8-4-2.8h-4.6v5.6h-.1ZM207.4,173h4.5c2.1,0,3.4-.7,3.4-2.6s-1.3-2.4-3.4-2.4h-4.5v5ZM203.8,165.1h7.7c3.7,0,7.4.9,7.4,4.9s-.9,3.2-2.4,4.1c2,.6,3.3,2.4,3.2,4.5,0,4.2-3.5,5.7-7.7,5.7h-8.2v-19.2ZM241.1,165.1l-5.4,8.7-5.3-8.7h-4.2l7.6,11.8v7.3h3.7v-7.2l7.8-11.9h-4.2ZM268,181.3h4.8c2.5,0,3.9-.9,3.9-2.8s-1.3-2.8-4-2.8h-4.6v5.6h0ZM268,173h4.5c2.1,0,3.4-.7,3.4-2.6s-1.3-2.4-3.4-2.4h-4.5v5ZM264.4,165.1h7.7c3.7,0,7.4.9,7.4,4.9s-.9,3.2-2.4,4.1c2,.6,3.3,2.4,3.2,4.5,0,4.2-3.5,5.7-7.7,5.7h-8.3v-19.2h.1ZM290.5,167.9v6.7h3.2c2.8,0,5.1-.5,5.1-3.2s-2.6-3.4-5.3-3.4h-3ZM293.4,165.1c4.7,0,9.1.8,9.1,6.4s-4,6.1-9.1,6.1h-3v6.6h-3.9v-19.1h6.9ZM316.6,165.1l-7.6,19.1h3.7l1.5-4h8.4l1.6,4h3.9l-7.7-19.1h-3.8ZM318.4,169l3.2,8.3h-6.2l3-8.3ZM346.2,165.1l-5.4,8.7-5.3-8.7h-4.2l7.6,11.8v7.3h3.7v-7.2l7.8-11.9h-4.2ZM500.1,138.9c-22.3,0-40.4-18.1-40.4-40.4s18.1-40.4,40.4-40.4,40.4,18.1,40.4,40.4h0c0,22.3-18.1,40.3-40.4,40.4M560.6,98.5c0-33.4-27.1-60.5-60.5-60.5s-60.5,27.1-60.5,60.5,27.1,60.5,60.5,60.5,60.5-27.1,60.5-60.5M508.2,0v20.2c17.9,2.2,34.6,10.2,47.5,22.9,31.4,30.8,31.8,81.2,1,112.6l-1,1c-12.8,12.7-29.6,20.8-47.5,22.9v20.2c51.7-4.8,91.4-48,91.7-100-.3-51.7-39.9-95-91.7-99.8M418.7,100.1c0-21.5,8.6-42.1,24-57.1,12.9-12.7,29.7-20.8,47.8-23V-.3c-52,4.7-92,48.1-92.4,100.3.4,52.2,40.4,95.6,92.4,100.3v-20.3c-18-2.2-34.8-10.3-47.8-23-15.4-14.8-24-35.4-24-56.9"/>
    </g>
  </g>
</svg>