<?xml version="1.0" encoding="UTF-8"?>
<svg xmlns="http://www.w3.org/2000/svg" version="1.1" viewBox="0 0 1920 628.2">
  <!-- Generator: Adobe Illustrator 28.6.0, SVG Export Plug-In . SVG Version: 1.2.0 Build 709)  -->
  <g>
    <g id="Layer_1">
      <g id="Layer_1-2" data-name="Layer_1">
        <path d="M729,15l-251.4,599.7h-164l-123.7-478.6c-7.5-29.5-14-40.3-36.9-52.7C115.8,63.2,54.2,44.2,0,32.5L3.7,15h264c33.6,0,63.9,22.4,71.5,61.2l65.3,347L566,15h163ZM1371.6,419c.7-158.3-218.9-167-217.4-237.7.5-21.5,21-44.4,65.8-50.2,22.2-2.9,83.5-5.1,152.9,26.8l27.2-127.2c-37.3-13.5-85.4-26.6-145.1-26.6-153.3,0-261.3,81.5-262.2,198.2-1,86.3,77,134.5,135.8,163.2,60.5,29.4,80.8,48.3,80.5,74.5-.4,40.2-48.2,58-92.9,58.7-78,1.2-123.2-21.1-159.3-37.9l-28.1,131.4c36.2,16.6,103.2,31.1,172.5,31.9,163,0,269.6-80.5,270.1-205.2M1776.5,614.8h143.5L1794.8,15h-132.4c-29.8,0-54.9,17.3-66,44l-232.8,555.7h162.9l32.3-89.6h199.1l18.7,89.6h0ZM1603.4,402.3l81.7-225.2,47,225.2h-128.7ZM950.7,15l-128.3,599.7h-155.1L795.6,15h155.1Z"/>
      </g>
    </g>
  </g>
</svg>